<svg width="1440" height="810" viewBox="0 0 1440 810" fill="none" xmlns="http://www.w3.org/2000/svg">
<g clip-path="url(#clip0_4264_680)">
<rect width="1440" height="810" fill="url(#paint0_linear_4264_680)"/>
<path opacity="0.3" d="M-28.5 608.963C27 591.797 141.1 578.163 153.5 660.963C164.926 737.261 211.675 799.701 348.83 821.043C537.051 819.168 665.642 819.671 532.5 826.963C458.121 831.037 397.729 828.652 348.83 821.043C216.992 822.356 55.8977 824.835 -65 826.963L-28.5 608.963Z" fill="#D2C4FF"/>
<path opacity="0.3" d="M1458.34 182.143C1403.21 163.815 1302.48 108.52 1340.57 33.9617C1375.67 -34.7414 1373.97 -112.724 1274.83 -209.879C1120.66 -317.862 1016.36 -393.084 1128.89 -321.553C1191.76 -281.593 1239.49 -244.517 1274.83 -209.879C1382.83 -134.243 1515.29 -42.5349 1614.86 26.0724L1458.34 182.143Z" fill="#DED4FF"/>
<path opacity="0.3" d="M134 6.331C134 -50.3784 109.742 -71 85.483 -71C62.695 -71 61.225 -30.4932 37.702 -30.4932C-10.5 -30.4932 -27.5 -90.5 -49.7748 -60.6892C-61.6387 -44.8116 -42.4238 -22.3919 -32.8675 -12.8176C-23.311 -3.243 -4.934 24.743 -45.3642 43.892C-85.7947 63.041 -88 83.662 -88 103.547C-88 123.432 -63.7417 147 -35.8079 147C76.662 147 134 63.041 134 6.331Z" fill="#D2C5FD"/>
<path opacity="0.3" d="M1285.89 864.714C1249.67 862.738 1226.13 832.848 1240.38 805.09C1264.77 757.546 1330.9 757.905 1364.55 726.234C1383.45 708.441 1408.55 690.264 1436.02 692.674C1456.92 694.511 1479.79 707.502 1482.15 737.134C1484.51 766.767 1469.09 779.5 1488.54 806.334C1503.17 826.536 1507.3 835.373 1502.32 847.597C1491.53 874.073 1436.29 859.373 1415.23 853.209C1371.64 840.46 1329.38 867.096 1285.89 864.714Z" fill="#DED4FF"/>
</g>
<defs>
<linearGradient id="paint0_linear_4264_680" x1="1440" y1="3.86238e-05" x2="-18" y2="810" gradientUnits="userSpaceOnUse">
<stop stop-color="white"/>
<stop offset="1" stop-color="#EDE8FF"/>
</linearGradient>
<clipPath id="clip0_4264_680">
<rect width="1440" height="810" fill="white"/>
</clipPath>
</defs>
</svg>
