<svg width="625" height="417" viewBox="0 0 625 417" fill="none" xmlns="http://www.w3.org/2000/svg">
<path d="M590.802 279.307H559.694C558.885 279.307 558.232 278.669 558.232 277.876V250.879C558.232 250.094 557.578 249.448 556.769 249.448H554.568C553.759 249.448 553.106 248.811 553.106 248.018V242.761C553.106 241.976 552.452 241.331 551.643 241.331H550.033C549.224 241.331 548.57 240.693 548.57 239.9V219.155C548.57 218.369 547.917 217.724 547.108 217.724H508.408C507.599 217.724 506.946 218.361 506.946 219.155V239.9C506.946 240.685 506.292 241.331 505.483 241.331H498.07C497.261 241.331 496.608 241.968 496.608 242.761V248.018C496.608 248.803 495.954 249.448 495.145 249.448H486.316C485.507 249.448 484.854 248.811 484.854 248.018V208.098C484.854 207.312 484.2 206.667 483.391 206.667H464.831C464.022 206.667 463.368 206.029 463.368 205.236V170.705C463.368 169.919 462.715 169.274 461.906 169.274H460.708C459.899 169.274 459.246 168.636 459.246 167.843V155.356C459.246 154.57 458.592 153.925 457.783 153.925H448.029C447.22 153.925 446.566 154.563 446.566 155.356V167.843C446.566 168.629 445.913 169.274 445.104 169.274H431.226C430.417 169.274 429.764 169.912 429.764 170.705V205.236C429.764 206.022 429.11 206.667 428.301 206.667H410.441C409.632 206.667 408.979 206.029 408.979 205.236V131.22C408.979 130.435 408.325 129.79 407.516 129.79H365.829C365.02 129.79 364.367 130.427 364.367 131.22V232.536C364.367 233.322 363.713 233.967 362.904 233.967H346.506C345.697 233.967 345.044 233.329 345.044 232.536V195.843C345.044 195.058 344.391 194.413 343.582 194.413H336.884C336.075 194.413 335.422 193.775 335.422 192.982V125.427C335.422 124.642 334.768 123.997 333.959 123.997H332.318C331.509 123.997 330.855 123.359 330.855 122.566V112.481C330.855 111.696 330.202 111.05 329.393 111.05H327.581C326.772 111.05 326.118 110.413 326.118 109.62V99.5347C326.118 98.7494 325.465 98.104 324.656 98.104H320.774C319.965 98.104 319.312 97.4664 319.312 96.6733V86.5961C319.312 85.8108 318.658 85.1654 317.849 85.1654H309.238C308.429 85.1654 307.775 85.803 307.775 86.5961V96.6811C307.775 97.4664 307.122 98.1118 306.313 98.1118H302.369C301.56 98.1118 300.907 98.7494 300.907 99.5425V109.627C300.907 110.413 300.253 111.058 299.444 111.058H296.862C296.053 111.058 295.399 111.696 295.399 112.489V122.574C295.399 123.359 294.746 124.005 293.937 124.005H292.296C291.487 124.005 290.833 124.642 290.833 125.435V192.997C290.833 193.783 290.18 194.428 289.371 194.428H282.673C281.864 194.428 281.211 193.791 281.211 192.997V170.775C281.211 169.989 280.557 169.344 279.748 169.344H218.816C218.007 169.344 217.354 169.982 217.354 170.775V211.892C217.354 212.677 216.7 213.323 215.891 213.323H209.194C208.385 213.323 207.731 212.685 207.731 211.892V150.83C207.731 150.045 207.078 149.4 206.269 149.4H203.235C202.426 149.4 201.773 148.762 201.773 147.969V137.884C201.773 137.099 201.119 136.453 200.31 136.453H171.521C170.712 136.453 170.058 137.091 170.058 137.884V147.969C170.058 148.754 169.405 149.4 168.596 149.4H164.598C163.789 149.4 163.135 150.037 163.135 150.83V211.884C163.135 212.67 162.482 213.315 161.673 213.315H154.975C154.166 213.315 153.513 213.953 153.513 214.746V258.351C153.513 259.137 152.859 259.782 152.05 259.782H120.406C119.597 259.782 118.943 259.144 118.943 258.351V230.958C118.943 230.173 118.29 229.527 117.481 229.527H90.9784C90.1694 229.527 89.5159 230.165 89.5159 230.958V288.287C89.5159 289.073 88.8625 289.718 88.0535 289.718H61.6831C60.8741 289.718 60.2207 290.356 60.2207 291.149V362.778C60.2207 363.563 60.8741 364.208 61.6831 364.208H590.701C591.564 364.208 592.264 363.509 592.264 362.645V280.753C592.264 279.967 591.611 279.322 590.802 279.322V279.307Z" fill="#C7E1D7"/>
<path d="M368.704 382.362C368.704 380.877 301.335 379.675 218.224 379.675C135.121 379.675 67.7451 380.877 67.7451 382.362C67.7451 383.847 135.114 385.049 218.224 385.049C301.335 385.049 368.704 383.847 368.704 382.362Z" fill="#B3CFC4"/>
<path d="M624.199 166.807H560.505C560.505 166.807 574.735 146.438 585.945 146.438C597.155 146.438 600.469 160.022 600.469 160.022C600.469 160.022 608.379 153.685 615.714 154.82C623.05 155.956 624.186 166.82 624.186 166.82L624.199 166.807Z" fill="white"/>
<path d="M517.032 416.22C568.677 416.22 610.544 415.017 610.544 413.533C610.544 412.049 568.677 410.845 517.032 410.845C465.386 410.845 423.52 412.049 423.52 413.533C423.52 415.017 465.386 416.22 517.032 416.22Z" fill="#B3CFC4"/>
<path d="M320.295 381.337C336.692 381.337 349.985 368.042 349.985 351.643C349.985 335.243 336.692 321.949 320.295 321.949C303.898 321.949 290.605 335.243 290.605 351.643C290.605 368.042 303.898 381.337 320.295 381.337Z" fill="#2C4351"/>
<path d="M319.142 367.431C327.861 367.431 334.928 360.362 334.928 351.643C334.928 342.923 327.861 335.854 319.142 335.854C310.424 335.854 303.356 342.923 303.356 351.643C303.356 360.362 310.424 367.431 319.142 367.431Z" fill="#2C4351"/>
<path d="M131.856 382.092C148.253 382.092 161.546 368.797 161.546 352.397C161.546 335.998 148.253 322.703 131.856 322.703C115.459 322.703 102.166 335.998 102.166 352.397C102.166 368.797 115.459 382.092 131.856 382.092Z" fill="#2C4351"/>
<path d="M130.703 368.186C139.421 368.186 146.489 361.117 146.489 352.397C146.489 343.678 139.421 336.609 130.703 336.609C121.985 336.609 114.917 343.678 114.917 352.397C114.917 361.117 121.985 368.186 130.703 368.186Z" fill="#2C4351"/>
<path d="M369.501 325.069H266.214V349.913H369.501V325.069Z" fill="#456C75"/>
<path d="M365.771 179.752H268.961V325.077H365.771V179.752Z" fill="#02CEAC"/>
<path d="M359.217 186.892H275.522V316.378H359.217V186.892Z" fill="#3F636D"/>
<path d="M359.217 186.892L275.522 316.378V186.892H359.217Z" fill="#2C4351"/>
<path d="M319.141 230.203H275.522V316.378H319.141V230.203Z" fill="#416F5E"/>
<path d="M345.805 269.751H302.186V316.386H345.805V269.751Z" fill="#4F9078"/>
<path d="M128.176 192.581H112.144C107.1 192.581 102.403 195.583 99.6731 200.543L67.5332 259.092L28.1107 281.537L17.5303 325.603H128.176V192.581Z" fill="#2C4351"/>
<path d="M23.7357 297.986H31.2725L26.1773 320.778L18.7676 320.422L23.7357 297.986Z" fill="#07EAA9"/>
<path d="M31.2734 285.267C30.8326 285.267 30.4087 285.039 30.1713 284.64C29.8152 284.038 30.0187 283.258 30.6291 282.902L66.3636 261.967C66.9656 261.61 67.7456 261.814 68.1016 262.424C68.4577 263.027 68.2542 263.807 67.6438 264.163L31.9093 285.098C31.7058 285.217 31.4854 285.276 31.265 285.276L31.2734 285.267Z" fill="#3A5B68"/>
<path d="M102.191 210.252L73.4766 261.806H128.176V202.892L112.204 203.613C108.143 203.799 104.404 206.275 102.191 210.252Z" fill="#D9FFF8"/>
<path d="M94.5698 234.095C94.1629 234.095 93.7729 233.9 93.527 233.544C93.1285 232.968 93.2727 232.171 93.8492 231.772L122.844 211.71C123.42 211.312 124.217 211.456 124.616 212.033C125.014 212.609 124.87 213.406 124.293 213.805L95.2989 233.867C95.0785 234.019 94.8241 234.095 94.5783 234.095H94.5698Z" fill="white"/>
<path d="M88.0591 250.248C87.6521 250.248 87.2621 250.053 87.0163 249.697C86.6178 249.121 86.7619 248.324 87.3384 247.925L116.333 227.863C116.909 227.465 117.706 227.609 118.105 228.185C118.503 228.762 118.359 229.559 117.783 229.958L88.7882 250.019C88.5677 250.172 88.3134 250.248 88.0675 250.248H88.0591Z" fill="white"/>
<path d="M101.369 251.783C100.962 251.783 100.572 251.588 100.326 251.232C99.9274 250.655 100.072 249.858 100.648 249.46L121.987 234.697C122.563 234.299 123.36 234.443 123.759 235.02C124.157 235.596 124.013 236.393 123.437 236.792L102.098 251.554C101.877 251.707 101.623 251.783 101.377 251.783H101.369Z" fill="white"/>
<path d="M268.96 179.752H128.176V325.077H268.96V179.752Z" fill="#07EAA9"/>
<path d="M186.64 251.656L176.916 304.524H228.547L221.323 251.656H186.64Z" fill="#B4F9E0"/>
<path d="M203.469 266.902C196.195 266.902 190.277 258.736 190.277 248.697C190.277 238.657 196.195 230.492 203.469 230.492C210.743 230.492 216.661 238.657 216.661 248.697C216.661 258.736 210.743 266.902 203.469 266.902ZM203.469 232.323C197.204 232.323 192.1 239.666 192.1 248.697C192.1 257.727 197.195 265.07 203.469 265.07C209.743 265.07 214.838 257.727 214.838 248.697C214.838 239.666 209.743 232.323 203.469 232.323Z" fill="#B4F9E0"/>
<path d="M166.123 264.655L158.79 304.524H197.721L192.278 264.655H166.123Z" fill="#83F4CB"/>
<path d="M178.815 276.152C173.33 276.152 168.862 269.996 168.862 262.425C168.862 254.853 173.322 248.697 178.815 248.697C184.309 248.697 188.769 254.853 188.769 262.425C188.769 269.996 184.309 276.152 178.815 276.152ZM178.815 250.079C174.085 250.079 170.244 255.616 170.244 262.425C170.244 269.233 174.093 274.77 178.815 274.77C183.538 274.77 187.387 269.233 187.387 262.425C187.387 255.616 183.538 250.079 178.815 250.079Z" fill="#83F4CB"/>
<path d="M190.192 220.529C190.2 220.317 190.2 220.19 190.2 220.147C190.2 220.147 190.2 220.139 190.2 220.13C190.2 214.525 185.105 209.989 178.815 209.989C172.524 209.989 167.429 214.534 167.429 220.13C167.429 220.13 167.429 220.274 167.437 220.563C167.463 221.114 167.547 221.656 167.658 222.182C168.929 228.321 173.27 235.062 176.153 239.03C177.424 240.786 180.196 240.803 181.485 239.047C187.572 230.772 189.42 225.04 189.972 222.191C190.099 221.648 190.175 221.097 190.2 220.529H190.192Z" fill="#83F4CB"/>
<path d="M178.815 227.176C182.663 227.176 185.783 224.056 185.783 220.207C185.783 216.357 182.663 213.237 178.815 213.237C174.966 213.237 171.846 216.357 171.846 220.207C171.846 224.056 174.966 227.176 178.815 227.176Z" fill="#07EAA9"/>
<path d="M266.214 325.069H12.9268V349.913H266.214V325.069Z" fill="#3F636D"/>
<path d="M228.64 383.245C245.037 383.245 258.33 369.95 258.33 353.551C258.33 337.151 245.037 323.856 228.64 323.856C212.243 323.856 198.95 337.151 198.95 353.551C198.95 369.95 212.243 383.245 228.64 383.245Z" fill="#1E3441"/>
<path d="M227.496 369.339C236.214 369.339 243.282 362.27 243.282 353.551C243.282 344.831 236.214 337.762 227.496 337.762C218.778 337.762 211.71 344.831 211.71 353.551C211.71 362.27 218.778 369.339 227.496 369.339Z" fill="#3F636D"/>
<path d="M67.0071 382.092C83.4043 382.092 96.6969 368.797 96.6969 352.397C96.6969 335.998 83.4043 322.703 67.0071 322.703C50.6099 322.703 37.3174 335.998 37.3174 352.397C37.3174 368.797 50.6099 382.092 67.0071 382.092Z" fill="#1E3441"/>
<path d="M65.8631 368.186C74.5814 368.186 81.649 361.117 81.649 352.397C81.649 343.678 74.5814 336.609 65.8631 336.609C57.1447 336.609 50.0771 343.678 50.0771 352.397C50.0771 361.117 57.1447 368.186 65.8631 368.186Z" fill="#3F636D"/>
<path d="M93.5645 163.21L97.3541 161.302" stroke="#B3CFC4" stroke-width="3" stroke-linecap="round" stroke-linejoin="round"/>
<path d="M104.806 157.546L302.935 57.6104L489.484 100.948" stroke="#B3CFC4" stroke-width="3" stroke-linecap="round" stroke-linejoin="round"/>
<path d="M493.555 101.889L497.683 102.847" stroke="#B3CFC4" stroke-width="3" stroke-linecap="round" stroke-linejoin="round"/>
<path d="M316.009 49.9799C316.026 49.734 316.026 49.5899 316.017 49.539V49.522C316.017 43.0863 310.159 37.8716 302.936 37.8716C295.713 37.8716 289.854 43.0863 289.854 49.522C289.854 49.522 289.854 49.6916 289.871 50.0223C289.905 50.6582 289.999 51.2772 290.126 51.8792C291.592 58.9255 296.577 66.6755 299.884 71.2373C301.351 73.2553 304.53 73.2723 306.013 71.2627C313.008 61.7575 315.127 55.1692 315.763 51.8962C315.907 51.2772 315.992 50.6413 316.026 49.9884L316.009 49.9799Z" fill="#07EAA9"/>
<path d="M302.936 57.6114C307.356 57.6114 310.939 54.0277 310.939 49.607C310.939 45.1863 307.356 41.6027 302.936 41.6027C298.516 41.6027 294.933 45.1863 294.933 49.607C294.933 54.0277 298.516 57.6114 302.936 57.6114Z" fill="#E5EFEB"/>
<path d="M521.141 100.279C521.158 99.957 521.158 99.762 521.158 99.6942C521.158 99.6857 521.158 99.6772 521.158 99.6687C521.158 91.1471 513.401 84.2451 503.837 84.2451C494.274 84.2451 486.517 91.1471 486.517 99.6687C486.517 99.6687 486.508 99.8892 486.534 100.322C486.576 101.161 486.704 101.984 486.873 102.781C488.815 112.108 495.41 122.368 499.785 128.405C501.718 131.076 505.94 131.093 507.89 128.439C517.148 115.864 519.954 107.139 520.793 102.806C520.98 101.984 521.098 101.144 521.132 100.279H521.141Z" fill="#07EAA9"/>
<path d="M503.838 110.386C509.69 110.386 514.435 105.641 514.435 99.7871C514.435 93.9334 509.69 89.188 503.838 89.188C497.985 89.188 493.24 93.9334 493.24 99.7871C493.24 105.641 497.985 110.386 503.838 110.386Z" fill="#E5EFEB"/>
<path d="M96.9302 163.457C96.9387 163.296 96.9387 163.194 96.9302 163.16C96.9302 163.16 96.9302 163.152 96.9302 163.143C96.9302 158.878 93.0473 155.41 88.2488 155.41C83.4503 155.41 79.5674 158.87 79.5674 163.143C79.5674 163.143 79.5674 163.253 79.5759 163.474C79.5928 163.898 79.6606 164.305 79.7454 164.703C80.7204 169.375 84.0268 174.522 86.2141 177.541C87.1891 178.881 89.3001 178.889 90.275 177.558C94.9125 171.258 96.3198 166.883 96.7437 164.712C96.837 164.305 96.8963 163.881 96.9133 163.449L96.9302 163.457Z" fill="#07EAA9"/>
<path d="M88.2574 168.52C91.1885 168.52 93.5646 166.144 93.5646 163.212C93.5646 160.281 91.1885 157.904 88.2574 157.904C85.3263 157.904 82.9502 160.281 82.9502 163.212C82.9502 166.144 85.3263 168.52 88.2574 168.52Z" fill="#E5EFEB"/>
<path d="M470.452 337.223H512.071V388.973H470.452V337.223Z" fill="#B3CFC4"/>
<path d="M438.477 337.223H470.451V388.973H438.477V337.223Z" fill="#416F5E"/>
<path d="M470.452 285.473H512.071V337.223H470.452V285.473Z" fill="#B3CFC4"/>
<path d="M438.477 285.473H470.45V337.223H438.477V285.473Z" fill="#4F9078"/>
<path d="M452.87 338.079H508.951C509.179 338.079 509.365 337.807 509.365 337.473C509.365 337.14 509.179 336.868 508.951 336.868H452.87C452.642 336.868 452.455 337.14 452.455 337.473C452.455 337.807 452.642 338.079 452.87 338.079Z" fill="#4F9078"/>
<path d="M408.472 388.697H528.683V395.23H408.472V388.697Z" fill="#1E3441"/>
<path d="M501.953 413.904C496.56 413.904 492.188 409.515 492.188 404.101C492.188 398.688 496.56 394.299 501.953 394.299C507.346 394.299 511.718 398.688 511.718 404.101C511.718 409.515 507.346 413.904 501.953 413.904Z" fill="#1E3441"/>
<path d="M501.954 409.002C499.257 409.002 497.071 406.808 497.071 404.101C497.071 401.395 499.257 399.2 501.954 399.2C504.65 399.2 506.836 401.395 506.836 404.101C506.836 406.808 504.65 409.002 501.954 409.002Z" fill="#B3CFC4"/>
<path d="M428.76 413.528C423.367 413.528 418.995 409.14 418.995 403.726C418.995 398.312 423.367 393.924 428.76 393.924C434.153 393.924 438.524 398.312 438.524 403.726C438.524 409.14 434.153 413.528 428.76 413.528Z" fill="#1E3441"/>
<path d="M428.758 408.628C426.062 408.628 423.876 406.433 423.876 403.727C423.876 401.02 426.062 398.826 428.758 398.826C431.455 398.826 433.641 401.02 433.641 403.727C433.641 406.433 431.455 408.628 428.758 408.628Z" fill="#B3CFC4"/>
<path d="M492.41 392.155L520.134 323.986C520.563 322.92 521.662 322.207 522.871 322.207H549.075C549.919 322.207 550.604 321.52 550.604 320.672C550.604 319.825 549.919 319.138 549.075 319.138H522.871C520.305 319.138 517.975 320.65 517.071 322.9L489.348 391.063L492.41 392.156V392.155Z" fill="#1E3441"/>
<path d="M527.597 274.767L533.687 282.466L534.865 281.42L534.922 281.369L531.359 276.864C531.359 276.864 534.814 277.424 535.526 277.831C536.237 278.238 537.48 281.129 537.48 281.129L555.326 294.141L559.611 289.14L565.241 296.605L563.466 303.556C563.466 303.556 557.361 307.564 555.859 307.564C554.602 307.564 539.167 290.699 534.15 285.178L534.14 285.168C533.164 284.093 532.581 283.449 532.581 283.449C532.581 283.449 527.806 278.596 527.597 277.679C527.388 276.762 527.597 274.767 527.597 274.767Z" fill="#DA8C8D"/>
<mask id="mask0_380_3691" style="mask-type:luminance" maskUnits="userSpaceOnUse" x="527" y="274" width="39" height="34">
<path d="M527.597 274.767L533.687 282.466L534.865 281.42L534.922 281.369L531.359 276.864C531.359 276.864 534.814 277.424 535.526 277.831C536.237 278.238 537.48 281.129 537.48 281.129L555.326 294.141L559.611 289.14L565.241 296.605L563.466 303.556C563.466 303.556 557.361 307.564 555.859 307.564C554.602 307.564 539.167 290.699 534.15 285.178L534.14 285.168C533.164 284.093 532.581 283.449 532.581 283.449C532.581 283.449 527.806 278.596 527.597 277.679C527.388 276.762 527.597 274.767 527.597 274.767Z" fill="white"/>
</mask>
<g mask="url(#mask0_380_3691)">
<path d="M556.893 292.069L564.804 302.363L566.579 298.117L560.581 287.192L555.326 294.142" fill="#C17276"/>
</g>
<path d="M535.544 283.487C535.9 283.203 535.96 282.684 535.677 282.326L527.002 271.357C526.719 271 526.201 270.94 525.845 271.224C525.488 271.508 525.429 272.027 525.712 272.385L534.387 283.354C534.67 283.712 535.187 283.771 535.544 283.487Z" fill="#043E28"/>
<path d="M586.88 301.831L590.621 304.93C590.621 304.93 593.695 299.614 594.09 296.607C594.09 296.607 593.117 305.49 592.533 309.4C591.901 313.63 575.376 313.388 575.376 313.388C575.376 313.388 580.409 310.924 586.88 301.833V301.831Z" fill="#BBC0C5"/>
<path d="M576.671 295.252C574.738 298.529 569.69 304.836 569.69 304.836L574.38 295.972C575.162 294.494 576.064 293.081 577.077 291.751L583.395 283.451L576.894 294.86C576.829 294.978 576.76 295.1 576.685 295.228L576.671 295.253V295.252Z" fill="#BBC0C5"/>
<path d="M576.507 253.018C576.507 253.018 568.75 265.317 575.797 267.012C582.843 268.707 589.426 261.971 588.561 256.194C587.694 250.417 581.059 244.705 576.508 253.018H576.507Z" fill="#DA8C8D"/>
<mask id="mask1_380_3691" style="mask-type:luminance" maskUnits="userSpaceOnUse" x="572" y="248" width="17" height="20">
<path d="M576.507 253.018C576.507 253.018 568.75 265.317 575.797 267.012C582.843 268.707 589.426 261.971 588.561 256.194C587.694 250.417 581.059 244.705 576.508 253.018H576.507Z" fill="white"/>
</mask>
<g mask="url(#mask1_380_3691)">
<path d="M574.516 256.794C574.516 256.794 584.852 258.124 586.88 254.12C586.88 254.12 580.064 249.488 577.072 249.958C574.078 250.428 574.518 256.794 574.518 256.794" fill="#C17276"/>
</g>
<path d="M588.412 259.161C588.412 259.161 585.393 267.615 585.528 274.988C585.528 274.988 579.702 277.208 576.343 276.115C572.984 275.022 581.137 261.516 581.137 261.516L588.412 259.161Z" fill="#DA8C8D"/>
<path d="M578.016 267.278C578.016 267.278 579.156 267.292 582.365 265.958C582.365 265.958 581.224 268.918 577.07 269.345C577.07 269.345 577.644 268.03 578.016 267.278Z" fill="#C17276"/>
<path d="M584.476 253.355L584.803 258.207C584.844 258.82 585.115 259.395 585.561 259.817C585.561 259.817 585.838 258.379 586.486 258.424C587.133 258.471 588.406 261.116 585.48 262.137L585.603 264.607C585.634 265.242 585.968 265.822 586.498 266.167C586.498 266.167 589.829 261.822 590.356 259.513C590.356 259.513 587.874 255.524 584.474 253.355H584.476Z" fill="#043E28"/>
<path d="M574.935 251.649C574.935 251.649 574.169 255.248 575.039 255.684C575.039 255.684 576.847 252.198 577.733 251.162C577.733 251.162 576.097 250.958 574.935 251.648V251.649Z" fill="#043E28"/>
<path d="M590.356 259.515C590.356 259.515 584.411 249.898 575.56 250.607C575.56 250.607 576.715 244.011 585.277 246.702C593.838 249.394 590.358 259.515 590.358 259.515H590.356Z" fill="#BBC0C5"/>
<path d="M585.549 254.12C585.549 254.12 581.143 243.549 573.424 244.279C569.569 244.643 574.935 251.648 574.935 251.648C574.935 251.648 579.103 250.532 585.549 254.12Z" fill="#6C7177"/>
<path d="M585.79 271.573C585.79 271.573 583.674 277.249 576.342 276.116L576.54 281.36C576.54 281.36 587.616 280.362 587.655 272.433L585.79 271.571V271.573Z" fill="white"/>
<path d="M576.342 276.116L572.839 279.586C572.839 279.586 571.815 275.297 575.135 271.331L576.325 271.176C576.325 271.176 574.653 275.243 576.342 276.116Z" fill="white"/>
<path d="M586.881 272.046C586.881 272.046 578.163 268.205 570.502 273.489L558.847 287.665L563.722 297.069L566.624 311.25H593.293L594.248 293.724C594.248 293.724 603.569 279.856 586.879 272.045L586.881 272.046Z" fill="#07EA97"/>
<mask id="mask2_380_3691" style="mask-type:luminance" maskUnits="userSpaceOnUse" x="558" y="270" width="39" height="42">
<path d="M586.881 272.046C586.881 272.046 578.163 268.205 570.502 273.489L558.847 287.665L563.722 297.069L566.624 311.25H593.293L594.248 293.724C594.248 293.724 603.569 279.856 586.879 272.045L586.881 272.046Z" fill="white"/>
</mask>
<g mask="url(#mask2_380_3691)">
<path d="M570.051 274.094C570.051 274.094 563.175 283.448 561.892 293.533L564.202 299.416L567.114 283.962L570.053 274.094" fill="#07EA97"/>
</g>
<path d="M570.051 274.095C570.604 273.2 571.449 272.529 572.43 272.159L573.017 271.938C573.017 271.938 568.674 283.959 567.835 291.003L573.116 291.93C573.116 291.93 582.599 275.801 588.02 272.611L590.655 274.201C590.655 274.201 575.53 288.57 575.895 302.019C576.26 315.468 593.786 302.149 593.786 302.149L596.202 335.319C598.588 358.645 600.548 364.556 600.548 364.556L611.001 403.723L592.708 408.359C592.708 408.359 581.953 375.746 579.471 364.556C579.356 364.039 579.23 363.481 579.093 362.886C578.621 364.401 577.028 408.359 577.028 408.359H557.429C557.429 408.359 558.105 410.254 560.991 362.886C562.002 355.378 558.914 292.115 570.05 274.095H570.051Z" fill="#03603D"/>
<path d="M579.096 362.887L573.965 340.659C573.965 340.659 573.562 358.253 573.259 362.805C572.956 367.356 575.677 385.051 575.677 385.051L579.094 362.888" fill="#043E28"/>
<path d="M594.247 293.725L585.075 307.566C585.075 307.566 591.615 303.734 593.788 302.151L594.248 293.726L594.247 293.725Z" fill="#06C07C"/>
<path d="M600.819 405.871L596.219 406.892L596.95 409.052C596.95 409.052 591.997 410.657 590.109 413.903L601.854 411.577L600.819 405.871Z" fill="#04482F"/>
<path d="M572.636 408.114L567.927 408.01L568.126 410.282C568.126 410.282 563.081 411.199 560.48 413.903H572.294L572.638 408.114H572.636Z" fill="#04482F"/>
<path d="M573.952 300.82C573.952 300.82 572.679 306.134 572.32 306.474C571.961 306.813 542.71 314.793 542.71 314.793L544.516 319.135C544.516 319.135 579.135 316.471 580.667 314.491C581.561 313.335 587.77 303.189 587.77 303.189L573.952 300.819V300.82Z" fill="#DA8C8D"/>
<mask id="mask3_380_3691" style="mask-type:luminance" maskUnits="userSpaceOnUse" x="542" y="300" width="46" height="20">
<path d="M573.952 300.82C573.952 300.82 572.679 306.134 572.32 306.474C571.961 306.813 542.71 314.793 542.71 314.793L544.516 319.135C544.516 319.135 579.135 316.471 580.667 314.491C581.561 313.335 587.77 303.189 587.77 303.189L573.952 300.819V300.82Z" fill="white"/>
</mask>
<g mask="url(#mask3_380_3691)">
<path d="M573.377 301.346L585.568 309.604L589.311 300.539L574.057 295.956L573.377 301.346Z" fill="#C17276"/>
</g>
<path d="M542.711 314.793L536.925 317.848C536.925 317.848 537.869 322.177 539.819 322.128C541.769 322.08 545.171 321.136 545.171 321.136L544.517 319.134C544.517 319.134 547.325 315.187 542.711 314.793Z" fill="#DA8C8D"/>
<path d="M572.839 300.761L588.963 303.557L594.248 293.724C594.248 293.724 600.927 281.691 590.658 274.202C583.998 269.345 572.839 300.761 572.839 300.761Z" fill="#07EA97"/>
<path d="M497.363 36.9426H359.783C359.783 36.9426 373.418 0 394.417 0C415.416 0 421.985 25.4975 421.985 25.4975C421.985 25.4975 436.146 11.6457 447.785 11.6457C459.424 11.6457 469.539 29.9499 469.539 29.9499C469.539 29.9499 485.98 20.1092 497.363 36.9426V36.9426Z" fill="white"/>
<path d="M124.841 96.2963H0C0 96.2963 17.1025 58.061 35.3883 55.6771C53.674 53.2933 62.427 84.0809 62.427 84.0809C62.427 84.0809 74.2186 73.1989 83.4959 73.1989C92.7733 73.1989 99.9262 87.5422 99.9262 87.5422C99.9262 87.5422 118.481 77.7241 124.841 96.3098V96.2963Z" fill="white"/>
</svg>
