<svg width="71" height="19" viewBox="0 0 71 19" fill="none" xmlns="http://www.w3.org/2000/svg">
<path d="M14.742 0.247999V3.81H9.906V18.5H5.46V3.81H0.624V0.247999H14.742ZM28.3353 15.276H21.5233L20.4313 18.5H15.7773L22.3813 0.247999H27.5293L34.1333 18.5H29.4273L28.3353 15.276ZM27.1913 11.844L24.9293 5.162L22.6933 11.844H27.1913ZM45.4513 18.5L41.6553 11.61H40.5893V18.5H36.1433V0.247999H43.6053C45.0439 0.247999 46.2659 0.499333 47.2713 1.002C48.2939 1.50467 49.0566 2.198 49.5593 3.082C50.0619 3.94867 50.3133 4.91933 50.3133 5.994C50.3133 7.20733 49.9666 8.29067 49.2733 9.244C48.5973 10.1973 47.5919 10.8733 46.2573 11.272L50.4693 18.5H45.4513ZM40.5893 8.464H43.3453C44.1599 8.464 44.7666 8.26467 45.1653 7.866C45.5813 7.46733 45.7893 6.904 45.7893 6.176C45.7893 5.48267 45.5813 4.93667 45.1653 4.538C44.7666 4.13933 44.1599 3.94 43.3453 3.94H40.5893V8.464ZM64.4662 15.276H57.6542L56.5622 18.5H51.9082L58.5122 0.247999H63.6602L70.2642 18.5H65.5582L64.4662 15.276ZM63.3222 11.844L61.0602 5.162L58.8242 11.844H63.3222Z" fill="#2B3674"/>
</svg>
