<svg width="107" height="36" viewBox="0 0 107 36" fill="none" xmlns="http://www.w3.org/2000/svg">
<path d="M76.9389 7H72.625V11.3468H76.9389V7Z" fill="url(#paint0_linear_202_9469)"/>
<path d="M81.2528 7H76.939V11.3468H81.2528V7Z" fill="url(#paint1_linear_202_9469)"/>
<path d="M68.3139 20.0376H64V24.3844H68.3139V20.0376Z" fill="url(#paint2_linear_202_9469)"/>
<path d="M68.3139 15.6909H64V20.0377H68.3139V15.6909Z" fill="url(#paint3_linear_202_9469)"/>
<path d="M68.3139 11.3442H64V15.691H68.3139V11.3442Z" fill="url(#paint4_linear_202_9469)"/>
<path d="M85.5634 20.0376H81.2495V24.3844H85.5634V20.0376Z" fill="url(#paint5_linear_202_9469)"/>
<path d="M85.5634 15.6909H81.2495V20.0377H85.5634V15.6909Z" fill="url(#paint6_linear_202_9469)"/>
<path d="M85.5634 11.3442H81.2495V15.691H85.5634V11.3442Z" fill="url(#paint7_linear_202_9469)"/>
<path d="M72.6254 24.3813H68.3115V28.7281H72.6254V24.3813Z" fill="url(#paint8_linear_202_9469)"/>
<path d="M76.9389 24.3813H72.625V28.7281H76.9389V24.3813Z" fill="url(#paint9_linear_202_9469)"/>
<path d="M81.2528 24.3813H76.939V28.7281H81.2528V24.3813Z" fill="url(#paint10_linear_202_9469)"/>
<path d="M72.6254 7H68.3115V11.3468H72.6254V7Z" fill="url(#paint11_linear_202_9469)"/>
<path d="M6.96 29L0.15 7.4H3.87L9.57 25.49L15.345 7.4H19.065L12.255 29H6.96ZM17.7094 29L24.5194 7.4H29.8144L36.6244 29H32.9044L26.7244 9.62H27.5344L21.4294 29H17.7094ZM21.5044 24.32V20.945H32.8444V24.32H21.5044ZM39.3363 29V7.4H42.5913L50.0613 22.7L57.5313 7.4H60.7863V29H57.4113V15.155L50.7813 29H49.3413L42.7263 15.155V29H39.3363ZM97.0188 29.45C95.4388 29.45 94.0138 29.175 92.7438 28.625C91.4838 28.075 90.4438 27.29 89.6238 26.27C88.8138 25.24 88.2988 24.02 88.0788 22.61L91.8288 22.04C92.1488 23.32 92.8038 24.31 93.7938 25.01C94.7938 25.71 95.9438 26.06 97.2438 26.06C98.0138 26.06 98.7388 25.94 99.4188 25.7C100.099 25.46 100.649 25.11 101.069 24.65C101.499 24.19 101.714 23.625 101.714 22.955C101.714 22.655 101.664 22.38 101.564 22.13C101.464 21.87 101.314 21.64 101.114 21.44C100.924 21.24 100.674 21.06 100.364 20.9C100.064 20.73 99.7138 20.585 99.3138 20.465L93.7338 18.815C93.2538 18.675 92.7338 18.49 92.1738 18.26C91.6238 18.02 91.0988 17.695 90.5988 17.285C90.1088 16.865 89.7038 16.335 89.3838 15.695C89.0738 15.045 88.9188 14.245 88.9188 13.295C88.9188 11.905 89.2688 10.74 89.9688 9.8C90.6788 8.85 91.6288 8.14 92.8188 7.67C94.0188 7.2 95.3488 6.97 96.8088 6.98C98.2888 6.99 99.6088 7.245 100.769 7.745C101.929 8.235 102.899 8.95 103.679 9.89C104.459 10.83 105.009 11.965 105.329 13.295L101.444 13.97C101.284 13.21 100.974 12.565 100.514 12.035C100.064 11.495 99.5088 11.085 98.8488 10.805C98.1988 10.525 97.5038 10.375 96.7638 10.355C96.0438 10.345 95.3738 10.455 94.7538 10.685C94.1438 10.905 93.6488 11.225 93.2688 11.645C92.8988 12.065 92.7138 12.555 92.7138 13.115C92.7138 13.645 92.8738 14.08 93.1938 14.42C93.5138 14.75 93.9088 15.015 94.3788 15.215C94.8588 15.405 95.3438 15.565 95.8338 15.695L99.7038 16.775C100.234 16.915 100.829 17.105 101.489 17.345C102.149 17.585 102.784 17.92 103.394 18.35C104.004 18.78 104.504 19.345 104.894 20.045C105.294 20.745 105.494 21.635 105.494 22.715C105.494 23.835 105.259 24.82 104.789 25.67C104.329 26.51 103.704 27.21 102.914 27.77C102.124 28.33 101.219 28.75 100.199 29.03C99.1888 29.31 98.1288 29.45 97.0188 29.45Z" fill="black"/>
<defs>
<linearGradient id="paint0_linear_202_9469" x1="61.2261" y1="23.7766" x2="79.1287" y2="4.78038" gradientUnits="userSpaceOnUse">
<stop stop-color="#07EA97"/>
<stop offset="1" stop-color="#03603D"/>
</linearGradient>
<linearGradient id="paint1_linear_202_9469" x1="63.5277" y1="25.9444" x2="81.4303" y2="6.9482" gradientUnits="userSpaceOnUse">
<stop stop-color="#07EA97"/>
<stop offset="1" stop-color="#03603D"/>
</linearGradient>
<linearGradient id="paint2_linear_202_9469" x1="63.08" y1="25.5243" x2="80.9826" y2="6.5253" gradientUnits="userSpaceOnUse">
<stop stop-color="#07EA97"/>
<stop offset="1" stop-color="#03603D"/>
</linearGradient>
<linearGradient id="paint3_linear_202_9469" x1="60.9286" y1="23.4966" x2="78.8313" y2="4.49765" gradientUnits="userSpaceOnUse">
<stop stop-color="#07EA97"/>
<stop offset="1" stop-color="#03603D"/>
</linearGradient>
<linearGradient id="paint4_linear_202_9469" x1="58.7772" y1="21.469" x2="76.6799" y2="2.47001" gradientUnits="userSpaceOnUse">
<stop stop-color="#07EA97"/>
<stop offset="1" stop-color="#03603D"/>
</linearGradient>
<linearGradient id="paint5_linear_202_9469" x1="72.2827" y1="34.1955" x2="90.1854" y2="15.1965" gradientUnits="userSpaceOnUse">
<stop stop-color="#07EA97"/>
<stop offset="1" stop-color="#03603D"/>
</linearGradient>
<linearGradient id="paint6_linear_202_9469" x1="70.1313" y1="32.1678" x2="88.0312" y2="13.1688" gradientUnits="userSpaceOnUse">
<stop stop-color="#07EA97"/>
<stop offset="1" stop-color="#03603D"/>
</linearGradient>
<linearGradient id="paint7_linear_202_9469" x1="67.9772" y1="30.1402" x2="85.8798" y2="11.144" gradientUnits="userSpaceOnUse">
<stop stop-color="#07EA97"/>
<stop offset="1" stop-color="#03603D"/>
</linearGradient>
<linearGradient id="paint8_linear_202_9469" x1="67.5333" y1="29.7196" x2="85.4359" y2="10.7206" gradientUnits="userSpaceOnUse">
<stop stop-color="#07EA97"/>
<stop offset="1" stop-color="#03603D"/>
</linearGradient>
<linearGradient id="paint9_linear_202_9469" x1="69.8316" y1="31.8874" x2="87.7342" y2="12.8884" gradientUnits="userSpaceOnUse">
<stop stop-color="#07EA97"/>
<stop offset="1" stop-color="#03603D"/>
</linearGradient>
<linearGradient id="paint10_linear_202_9469" x1="72.1331" y1="34.0552" x2="90.0358" y2="15.0562" gradientUnits="userSpaceOnUse">
<stop stop-color="#07EA97"/>
<stop offset="1" stop-color="#03603D"/>
</linearGradient>
<linearGradient id="paint11_linear_202_9469" x1="58.925" y1="21.6088" x2="76.8277" y2="2.60979" gradientUnits="userSpaceOnUse">
<stop stop-color="#07EA97"/>
<stop offset="1" stop-color="#03603D"/>
</linearGradient>
</defs>
</svg>
