<svg width="24" height="24" viewBox="0 0 24 24" fill="none" xmlns="http://www.w3.org/2000/svg">
<path d="M16.2731 18.4821C16.2731 15.1656 15.178 12.908 13.0187 11.7792C12.765 11.6471 12.4517 11.7455 12.3197 11.9967C12.1877 12.2504 12.286 12.5637 12.5372 12.6957C14.22 13.576 15.1236 15.3468 15.2271 17.9643H3.33844C3.442 15.3468 4.34556 13.576 6.02841 12.6957C6.28214 12.5637 6.38052 12.2504 6.24589 11.9967C6.11385 11.7429 5.80058 11.6471 5.54686 11.7792C3.38763 12.908 2.29248 15.1656 2.29248 18.4821C2.29248 18.7669 2.52549 18.9999 2.81028 18.9999H15.7553C16.0401 18.9999 16.2731 18.7669 16.2731 18.4821Z" fill="#7E7E7E"/>
<path d="M5.65479 8.38498C5.65479 10.3837 7.28068 12.0096 9.27939 12.0096C11.2781 12.0096 12.904 10.3837 12.904 8.38498C12.904 6.38627 11.2781 4.76038 9.27939 4.76038C7.28068 4.76038 5.65479 6.38627 5.65479 8.38498ZM11.8684 8.38498C11.8684 9.81152 10.7059 10.974 9.27939 10.974C7.85285 10.974 6.69039 9.81152 6.69039 8.38498C6.69039 6.95844 7.85285 5.79598 9.27939 5.79598C10.7059 5.79598 11.8684 6.95844 11.8684 8.38498Z" fill="#7E7E7E"/>
<path d="M21.1976 7.60803H15.2429C14.9581 7.60803 14.7251 7.84104 14.7251 8.12583C14.7251 8.41062 14.9581 8.64363 15.2429 8.64363H21.1976C21.4824 8.64363 21.7154 8.41062 21.7154 8.12583C21.7154 7.84104 21.4824 7.60803 21.1976 7.60803Z" fill="#7E7E7E"/>
<path d="M21.1925 11.7509H16.7912C16.5064 11.7509 16.2734 11.9839 16.2734 12.2687C16.2734 12.5534 16.5064 12.7865 16.7912 12.7865H21.1925C21.4773 12.7865 21.7103 12.5534 21.7103 12.2687C21.7103 11.9839 21.4773 11.7509 21.1925 11.7509Z" fill="#7E7E7E"/>
<path d="M21.1934 15.8931H18.8633C18.5785 15.8931 18.3455 16.1261 18.3455 16.4109C18.3455 16.6957 18.5785 16.9287 18.8633 16.9287H21.1934C21.4782 16.9287 21.7112 16.6957 21.7112 16.4109C21.7112 16.1261 21.4782 15.8931 21.1934 15.8931Z" fill="#7E7E7E"/>
</svg>
