<svg width="20" height="20" viewBox="0 0 20 20" fill="none" xmlns="http://www.w3.org/2000/svg">
<path fill-rule="evenodd" clip-rule="evenodd" d="M10.0003 3.33268C6.31843 3.33268 3.33366 6.31745 3.33366 9.99935C3.33366 13.6812 6.31843 16.666 10.0003 16.666C13.6822 16.666 16.667 13.6812 16.667 9.99935C16.667 6.31745 13.6822 3.33268 10.0003 3.33268ZM1.66699 9.99935C1.66699 5.39698 5.39795 1.66602 10.0003 1.66602C14.6027 1.66602 18.3337 5.39698 18.3337 9.99935C18.3337 14.6017 14.6027 18.3327 10.0003 18.3327C5.39795 18.3327 1.66699 14.6017 1.66699 9.99935ZM10.0003 6.66602C10.4606 6.66602 10.8337 7.03911 10.8337 7.49935V9.16602H12.5003C12.9606 9.16602 13.3337 9.53911 13.3337 9.99935C13.3337 10.4596 12.9606 10.8327 12.5003 10.8327H10.8337V12.4993C10.8337 12.9596 10.4606 13.3327 10.0003 13.3327C9.54009 13.3327 9.16699 12.9596 9.16699 12.4993V10.8327H7.50033C7.04009 10.8327 6.66699 10.4596 6.66699 9.99935C6.66699 9.53911 7.04009 9.16602 7.50033 9.16602H9.16699V7.49935C9.16699 7.03911 9.54009 6.66602 10.0003 6.66602Z" fill="white"/>
</svg>
