<svg width="20" height="21" viewBox="0 0 20 21" fill="none" xmlns="http://www.w3.org/2000/svg">
<g clip-path="url(#clip0_61_27934)">
<path d="M13.5396 4.47396C14.3535 4.63276 15.1016 5.03084 15.688 5.61724C16.2744 6.20364 16.6724 6.95168 16.8312 7.76562M13.5396 1.14062C15.2306 1.32849 16.8076 2.08577 18.0114 3.28813C19.2153 4.49049 19.9746 6.06647 20.1646 7.75729M19.3312 14.4073V16.9073C19.3322 17.1394 19.2846 17.3691 19.1917 17.5817C19.0987 17.7944 18.9623 17.9853 18.7913 18.1422C18.6203 18.2991 18.4184 18.4185 18.1985 18.4929C17.9787 18.5672 17.7457 18.5948 17.5146 18.574C14.9503 18.2953 12.4871 17.4191 10.3229 16.0156C8.30943 14.7362 6.60236 13.0291 5.32291 11.0156C3.91456 8.84163 3.03811 6.36645 2.76458 3.79062C2.74375 3.56018 2.77114 3.32793 2.84499 3.10865C2.91885 2.88937 3.03755 2.68787 3.19355 2.51698C3.34954 2.34609 3.53941 2.20955 3.75107 2.11606C3.96272 2.02257 4.19153 1.97418 4.42291 1.97396H6.92291C7.32733 1.96998 7.7194 2.11319 8.02605 2.3769C8.33269 2.64061 8.53297 3.00683 8.58958 3.40729C8.6951 4.20735 8.89079 4.9929 9.17291 5.74896C9.28503 6.04723 9.3093 6.37139 9.24283 6.68302C9.17637 6.99466 9.02196 7.28072 8.79791 7.50729L7.73958 8.56562C8.92587 10.6519 10.6533 12.3793 12.7396 13.5656L13.7979 12.5073C14.0245 12.2832 14.3105 12.1288 14.6222 12.0624C14.9338 11.9959 15.258 12.0202 15.5562 12.1323C16.3123 12.4144 17.0979 12.6101 17.8979 12.7156C18.3027 12.7727 18.6724 12.9766 18.9367 13.2885C19.201 13.6004 19.3414 13.9986 19.3312 14.4073Z" stroke="#7E7E7E" stroke-linecap="round" stroke-linejoin="round"/>
</g>
<defs>
<clipPath id="clip0_61_27934">
<rect width="20" height="20" fill="white" transform="translate(0 0.306641)"/>
</clipPath>
</defs>
</svg>
