<svg width="20" height="21" viewBox="0 0 20 21" fill="none" xmlns="http://www.w3.org/2000/svg">
<path d="M10 20.915C7.32891 20.915 4.81766 19.8749 2.92891 17.9861C1.04016 16.0974 0 13.5861 0 10.915C0 8.24395 1.0402 5.73273 2.92891 3.84395C4.81762 1.95516 7.32891 0.915039 10 0.915039C12.6711 0.915039 15.1823 1.9552 17.0711 3.84395C18.9598 5.7327 20 8.24395 20 10.915C20 13.5861 18.9598 16.0973 17.0711 17.9861C15.1824 19.8749 12.6711 20.915 10 20.915ZM10 2.16504C5.17523 2.16504 1.25 6.09027 1.25 10.915C1.25 15.7398 5.17523 19.665 10 19.665C14.8248 19.665 18.75 15.7398 18.75 10.915C18.75 6.09027 14.8248 2.16504 10 2.16504Z" fill="#7E7E7E"/>
<path d="M13.2104 8.5921L12.863 9.77731H6.24219L6.58958 8.5921H13.2104ZM10.1043 16.582L6.3648 12.0047L6.34436 11.1464H8.20391C8.68753 11.1464 9.09963 11.0783 9.4402 10.9421C9.78078 10.8024 10.0413 10.5947 10.2218 10.3188C10.4023 10.0396 10.4926 9.68876 10.4926 9.26644C10.4926 8.64319 10.3053 8.15446 9.93064 7.80026C9.556 7.44265 8.98043 7.26385 8.20391 7.26385H6.24219L6.58958 6.11951H8.20391C9.03492 6.11951 9.71607 6.25744 10.2474 6.53331C10.7821 6.80577 11.1771 7.18041 11.4326 7.65722C11.6914 8.13062 11.8208 8.66703 11.8208 9.26644C11.8208 9.80796 11.7016 10.3069 11.4632 10.7633C11.2282 11.2162 10.8502 11.5807 10.3291 11.8565C9.81143 12.1324 9.12687 12.2703 8.27543 12.2703H8.24478L11.6982 16.5003V16.582H10.1043ZM13.2104 6.11951L12.863 7.30472L7.65218 7.26385L7.99956 6.11951H13.2104Z" fill="#7E7E7E"/>
</svg>
