<svg width="24" height="24" viewBox="0 0 24 24" fill="none" xmlns="http://www.w3.org/2000/svg">
<path d="M18.4 5.2H19.2V2.4H16.4V3.2H17.8344L12 9.03437L8.80005 5.83437L4.91724 9.71719L5.48286 10.2828L8.80005 6.96562L12 10.1656L18.4 3.76562V5.2Z" fill="#17AC88"/>
<path d="M5.20002 21.6C6.79631 21.6 8.00002 20.9121 8.00002 20V15.2C8.00002 14.2879 6.79631 13.6 5.20002 13.6C3.60374 13.6 2.40002 14.2879 2.40002 15.2V20C2.40002 20.9121 3.60374 21.6 5.20002 21.6ZM3.20002 18.4C3.20002 18.2927 3.29065 18.1693 3.44746 18.0539C3.93298 18.2741 4.53948 18.4 5.20002 18.4C5.86211 18.4 6.4697 18.2737 6.95286 18.0541C7.1095 18.1695 7.20002 18.2928 7.20002 18.4C7.20002 18.5402 7.04709 18.7084 6.78616 18.8523C6.39788 19.0732 5.81975 19.2 5.20002 19.2C4.5803 19.2 4.00217 19.0732 3.6094 18.8498C3.35295 18.7084 3.20002 18.5402 3.20002 18.4ZM3.43738 16.4603C3.91226 16.6742 4.51985 16.8 5.20002 16.8C5.8802 16.8 6.48779 16.6742 6.96267 16.4603C7.11394 16.5739 7.20002 16.6948 7.20002 16.8C7.20002 16.9402 7.04709 17.1084 6.78616 17.2523C6.39788 17.4732 5.81975 17.6 5.20002 17.6C4.5803 17.6 4.00217 17.4732 3.6094 17.2498C3.35295 17.1084 3.20002 16.9402 3.20002 16.8C3.20002 16.6948 3.28611 16.5739 3.43738 16.4603ZM5.20002 14.4C6.42092 14.4 7.20002 14.8738 7.20002 15.2C7.20002 15.5262 6.42092 16 5.20002 16C3.97913 16 3.20002 15.5262 3.20002 15.2C3.20002 14.8738 3.97913 14.4 5.20002 14.4ZM3.44746 19.6539C3.93298 19.8741 4.53948 20 5.20002 20C5.86211 20 6.4697 19.8737 6.95286 19.6541C7.1095 19.7695 7.20002 19.8928 7.20002 20C7.20002 20.3262 6.42092 20.8 5.20002 20.8C3.97913 20.8 3.20002 20.3262 3.20002 20C3.20002 19.8927 3.29065 19.7693 3.44746 19.6539Z" fill="#17AC88"/>
<path d="M18.8 21.6C20.3963 21.6 21.6 20.9121 21.6 20V8.8C21.6 7.88789 20.3963 7.2 18.8 7.2C17.2037 7.2 16 7.88789 16 8.8V20C16 20.9121 17.2037 21.6 18.8 21.6ZM16.8 18.4C16.8 18.2927 16.8906 18.1693 17.0474 18.0539C17.533 18.2741 18.1395 18.4 18.8 18.4C19.4621 18.4 20.0697 18.2737 20.5528 18.0541C20.7095 18.1695 20.8 18.2928 20.8 18.4C20.8 18.5402 20.6471 18.7084 20.3861 18.8523C19.9979 19.0732 19.4197 19.2 18.8 19.2C18.1803 19.2 17.6021 19.0732 17.2094 18.8498C16.9529 18.7084 16.8 18.5402 16.8 18.4ZM17.0374 10.0603C17.5122 10.2742 18.1198 10.4 18.8 10.4C19.4802 10.4 20.0878 10.2742 20.5626 10.0603C20.7139 10.1739 20.8 10.2948 20.8 10.4C20.8 10.5402 20.6471 10.7084 20.3861 10.8523C19.9979 11.0732 19.4197 11.2 18.8 11.2C18.1803 11.2 17.6021 11.0732 17.2094 10.8498C16.9529 10.7084 16.8 10.5402 16.8 10.4C16.8 10.2948 16.8861 10.1739 17.0374 10.0603ZM17.0474 11.6539C17.533 11.8741 18.1395 12 18.8 12C19.4621 12 20.0697 11.8737 20.5528 11.6541C20.7095 11.7695 20.8 11.8928 20.8 12C20.8 12.1402 20.6471 12.3084 20.3861 12.4523C19.9979 12.6732 19.4197 12.8 18.8 12.8C18.1803 12.8 17.6021 12.6732 17.2094 12.4498C16.9529 12.3084 16.8 12.1402 16.8 12C16.8 11.8927 16.8906 11.7693 17.0474 11.6539ZM17.0474 13.2539C17.533 13.4741 18.1395 13.6 18.8 13.6C19.4621 13.6 20.0697 13.4737 20.5528 13.2541C20.7095 13.3695 20.8 13.4928 20.8 13.6C20.8 13.7402 20.6471 13.9084 20.3861 14.0523C19.9979 14.2732 19.4197 14.4 18.8 14.4C18.1803 14.4 17.6021 14.2732 17.2094 14.0498C16.9529 13.9084 16.8 13.7402 16.8 13.6C16.8 13.4927 16.8906 13.3693 17.0474 13.2539ZM17.0474 14.8539C17.533 15.0741 18.1395 15.2 18.8 15.2C19.4621 15.2 20.0697 15.0737 20.5528 14.8541C20.7095 14.9695 20.8 15.0928 20.8 15.2C20.8 15.3402 20.6471 15.5084 20.3861 15.6523C19.9979 15.8732 19.4197 16 18.8 16C18.1803 16 17.6021 15.8732 17.2094 15.6498C16.9529 15.5084 16.8 15.3402 16.8 15.2C16.8 15.0927 16.8906 14.9693 17.0474 14.8539ZM17.0474 16.4539C17.533 16.6741 18.1395 16.8 18.8 16.8C19.4621 16.8 20.0697 16.6737 20.5528 16.4541C20.7095 16.5695 20.8 16.6928 20.8 16.8C20.8 16.9402 20.6471 17.1084 20.3861 17.2523C19.9979 17.4732 19.4197 17.6 18.8 17.6C18.1803 17.6 17.6021 17.4732 17.2094 17.2498C16.9529 17.1084 16.8 16.9402 16.8 16.8C16.8 16.6927 16.8906 16.5693 17.0474 16.4539ZM18.8 8C20.0209 8 20.8 8.47383 20.8 8.8C20.8 9.12617 20.0209 9.6 18.8 9.6C17.5791 9.6 16.8 9.12617 16.8 8.8C16.8 8.47383 17.5791 8 18.8 8ZM17.0474 19.6539C17.533 19.8741 18.1395 20 18.8 20C19.4621 20 20.0697 19.8737 20.5528 19.6541C20.7095 19.7695 20.8 19.8928 20.8 20C20.8 20.3262 20.0209 20.8 18.8 20.8C17.5791 20.8 16.8 20.3262 16.8 20C16.8 19.8927 16.8906 19.7693 17.0474 19.6539Z" fill="#17AC88"/>
<path d="M9.19995 13.6V20C9.19995 20.9121 10.4037 21.6 12 21.6C13.5962 21.6 14.8 20.9121 14.8 20V13.6C14.8 12.6879 13.5962 12 12 12C10.4037 12 9.19995 12.6879 9.19995 13.6ZM13.7626 14.8603C13.9139 14.9739 14 15.0948 14 15.2C14 15.3402 13.847 15.5084 13.5861 15.6523C13.1978 15.8732 12.6197 16 12 16C11.3802 16 10.8021 15.8732 10.4093 15.6498C10.1529 15.5084 9.99995 15.3402 9.99995 15.2C9.99995 15.0948 10.086 14.9739 10.2373 14.8603C10.7122 15.0742 11.3198 15.2 12 15.2C12.6801 15.2 13.2877 15.0742 13.7626 14.8603ZM13.5861 18.8523C13.1978 19.0732 12.6197 19.2 12 19.2C11.3802 19.2 10.8021 19.0732 10.4093 18.8498C10.1529 18.7084 9.99995 18.5402 9.99995 18.4C9.99995 18.2927 10.0906 18.1693 10.2474 18.0539C10.7329 18.2741 11.3394 18.4 12 18.4C12.662 18.4 13.2696 18.2737 13.7528 18.0541C13.9094 18.1695 14 18.2928 14 18.4C14 18.5402 13.847 18.7084 13.5861 18.8523ZM13.5861 17.2523C13.1978 17.4732 12.6197 17.6 12 17.6C11.3802 17.6 10.8021 17.4732 10.4093 17.2498C10.1529 17.1084 9.99995 16.9402 9.99995 16.8C9.99995 16.6927 10.0906 16.5693 10.2474 16.4539C10.7329 16.6741 11.3394 16.8 12 16.8C12.662 16.8 13.2696 16.6737 13.7528 16.4541C13.9094 16.5695 14 16.6928 14 16.8C14 16.9402 13.847 17.1084 13.5861 17.2523ZM12 20.8C10.7791 20.8 9.99995 20.3262 9.99995 20C9.99995 19.8927 10.0906 19.7693 10.2474 19.6539C10.7329 19.8741 11.3394 20 12 20C12.662 20 13.2696 19.8737 13.7528 19.6541C13.9094 19.7695 14 19.8928 14 20C14 20.3262 13.2208 20.8 12 20.8ZM14 13.6C14 13.9262 13.2208 14.4 12 14.4C10.7791 14.4 9.99995 13.9262 9.99995 13.6C9.99995 13.2738 10.7791 12.8 12 12.8C13.2208 12.8 14 13.2738 14 13.6Z" fill="#17AC88"/>
</svg>
