<svg width="32" height="32" viewBox="0 0 32 32" fill="none" xmlns="http://www.w3.org/2000/svg">
<path d="M20.2246 14.1071C20.0935 14.1071 19.9693 14.0284 19.9177 13.899C19.2739 12.2867 17.7357 11.2447 15.9993 11.2447C14.2633 11.2447 12.7257 12.2865 12.0823 13.899C12.0145 14.0687 11.8219 14.1505 11.6528 14.0834C11.4834 14.0158 11.4007 13.8235 11.4685 13.654C12.2129 11.7889 13.9913 10.5839 15.9993 10.5839C18.0077 10.5839 19.7867 11.7889 20.5314 13.654C20.5992 13.8235 20.5166 14.0158 20.3472 14.0834C20.3068 14.0993 20.2655 14.1071 20.2246 14.1071Z" fill="#17AC88"/>
<path d="M15.9999 11.2445C14.3481 11.2445 13.0044 9.90068 13.0044 8.24902C13.0044 6.59736 14.3481 5.25354 15.9999 5.25354C17.6517 5.25354 18.9954 6.59736 18.9954 8.24902C18.9954 9.90068 17.6517 11.2445 15.9999 11.2445ZM15.9999 5.9144C14.7127 5.9144 13.6653 6.96167 13.6653 8.24902C13.6653 9.53637 14.7127 10.5836 15.9999 10.5836C17.2871 10.5836 18.3345 9.53637 18.3345 8.24902C18.3345 6.96167 17.2871 5.9144 15.9999 5.9144Z" fill="#17AC88"/>
<path d="M16 15.8774C12.5499 15.8774 9.74316 13.0707 9.74316 9.6207C9.74316 6.17072 12.5499 3.36401 16 3.36401C19.4498 3.36401 22.2565 6.17072 22.2565 9.6207C22.2565 13.0707 19.4498 15.8774 16 15.8774ZM16 4.02487C12.9145 4.02487 10.404 6.53519 10.404 9.6207C10.404 12.7062 12.9145 15.2165 16 15.2165C19.0855 15.2165 21.5957 12.7062 21.5957 9.6207C21.5957 6.53519 19.0855 4.02487 16 4.02487Z" fill="#17AC88"/>
<path d="M15.9999 21.28C15.8172 21.28 15.6694 21.132 15.6694 20.9495V15.547C15.6694 15.3645 15.8172 15.2166 15.9999 15.2166C16.1825 15.2166 16.3303 15.3645 16.3303 15.547V20.9495C16.3303 21.132 16.1825 21.28 15.9999 21.28Z" fill="#17AC88"/>
<path d="M4.88658 21.2799C4.70394 21.2799 4.55615 21.1319 4.55615 20.9494V19.6921C4.55615 18.367 5.63392 17.2891 6.95886 17.2891H15.9998C16.1825 17.2891 16.3303 17.437 16.3303 17.6195C16.3303 17.802 16.1825 17.9499 15.9998 17.9499H6.95886C5.99855 17.9499 5.21701 18.7315 5.21701 19.6921V20.9494C5.21701 21.1319 5.06922 21.2799 4.88658 21.2799Z" fill="#17AC88"/>
<path d="M27.1131 21.2794C26.9305 21.2794 26.7827 21.1314 26.7827 20.9489V19.6919C26.7827 18.7315 26.0011 17.9499 25.0405 17.9499H15.9999C15.8172 17.9499 15.6694 17.802 15.6694 17.6195C15.6694 17.437 15.8172 17.2891 15.9999 17.2891H25.0405C26.3654 17.2891 27.4435 18.367 27.4435 19.6919V20.9489C27.4435 21.1314 27.2957 21.2794 27.1131 21.2794Z" fill="#17AC88"/>
<path d="M29.9845 26.6531H24.2421C24.0594 26.6531 23.9116 26.5052 23.9116 26.3227V22.9056C23.9116 22.5829 24.1743 22.3204 24.497 22.3204H29.7296C30.0523 22.3204 30.315 22.5829 30.315 22.9056V26.3227C30.315 26.5052 30.1672 26.6531 29.9845 26.6531ZM24.5725 25.9923H29.6541V22.9813H24.5725V25.9923Z" fill="#17AC88"/>
<path d="M30.6071 28.6358H23.62C23.41 28.6358 23.2199 28.5282 23.1118 28.3481C23.0037 28.1679 22.9985 27.9496 23.0976 27.7642L23.9508 26.1669C24.0082 26.0593 24.1202 25.9922 24.2422 25.9922H29.9847C30.1066 25.9922 30.2186 26.0593 30.276 26.1669L31.1295 27.7642C31.2286 27.9496 31.2231 28.1677 31.1154 28.3479C31.0072 28.5282 30.8172 28.6358 30.6071 28.6358ZM23.7343 27.9749H30.4929L29.7865 26.653H24.4403L23.7343 27.9749Z" fill="#17AC88"/>
<path d="M7.75798 26.6531H2.01549C1.83285 26.6531 1.68506 26.5052 1.68506 26.3227V22.9058C1.68506 22.5831 1.94772 22.3204 2.27041 22.3204H7.50306C7.82574 22.3204 8.08808 22.5831 8.08808 22.9058L8.08841 26.3227C8.08841 26.4103 8.05356 26.4944 7.9916 26.5563C7.92964 26.6183 7.84575 26.6531 7.75798 26.6531ZM2.34592 25.9923H7.42755L7.42723 22.9813H2.34592V25.9923Z" fill="#17AC88"/>
<path d="M8.37992 28.6359H1.39284C1.18277 28.6359 0.992709 28.5283 0.884932 28.3481C0.776833 28.1679 0.771348 27.9496 0.870412 27.7642L1.72391 26.1669C1.78135 26.0593 1.89332 25.9922 2.0153 25.9922H7.75778C7.87976 25.9922 7.99173 26.0593 8.04917 26.1669L8.90235 27.7642C9.00141 27.9496 8.99625 28.168 8.88815 28.3483C8.78005 28.5283 8.58999 28.6359 8.37992 28.6359ZM1.50707 27.9751H8.26569L7.55966 26.653H2.21342L1.50707 27.9751Z" fill="#17AC88"/>
<path d="M18.8713 26.6531H13.1288C12.9461 26.6531 12.7983 26.5052 12.7983 26.3227V22.9058C12.7983 22.5831 13.061 22.3204 13.3837 22.3204H18.6163C18.939 22.3204 19.2017 22.5831 19.2017 22.9058V26.3227C19.2017 26.5052 19.0539 26.6531 18.8713 26.6531ZM13.4592 25.9923H18.5408V22.9813H13.4592V25.9923Z" fill="#17AC88"/>
<path d="M19.4932 28.6359H12.5061C12.2961 28.6359 12.106 28.5283 11.9982 28.3481C11.8901 28.1679 11.8846 27.9496 11.9837 27.7642L12.8372 26.1669C12.8946 26.0593 13.0066 25.9922 13.1286 25.9922H18.8711C18.993 25.9922 19.105 26.0593 19.1625 26.1669L20.016 27.7642C20.115 27.9496 20.1095 28.1679 20.0014 28.3481C19.8937 28.5283 19.7036 28.6359 19.4932 28.6359ZM12.6203 27.9751H19.3793L18.6729 26.653H13.3267L12.6203 27.9751Z" fill="#17AC88"/>
</svg>
