<svg width="20" height="20" viewBox="0 0 20 20" fill="none" xmlns="http://www.w3.org/2000/svg">
<path fill-rule="evenodd" clip-rule="evenodd" d="M17.2222 8.25293H2.3689C2.0239 8.25293 1.7439 7.97293 1.7439 7.62793C1.7439 7.28293 2.0239 7.00293 2.3689 7.00293H17.2222C17.5672 7.00293 17.8472 7.28293 17.8472 7.62793C17.8472 7.97293 17.5672 8.25293 17.2222 8.25293Z" fill="#3E5468"/>
<path fill-rule="evenodd" clip-rule="evenodd" d="M13.5011 11.5078C13.1561 11.5078 12.8728 11.2278 12.8728 10.8828C12.8728 10.5378 13.1486 10.2578 13.4936 10.2578H13.5011C13.8461 10.2578 14.1261 10.5378 14.1261 10.8828C14.1261 11.2278 13.8461 11.5078 13.5011 11.5078Z" fill="#3E5468"/>
<path fill-rule="evenodd" clip-rule="evenodd" d="M9.80314 11.5078C9.45814 11.5078 9.1748 11.2278 9.1748 10.8828C9.1748 10.5378 9.45064 10.2578 9.79564 10.2578H9.80314C10.1481 10.2578 10.4281 10.5378 10.4281 10.8828C10.4281 11.2278 10.1481 11.5078 9.80314 11.5078Z" fill="#3E5468"/>
<path fill-rule="evenodd" clip-rule="evenodd" d="M6.09743 11.5078C5.75243 11.5078 5.46826 11.2278 5.46826 10.8828C5.46826 10.5378 5.74493 10.2578 6.08993 10.2578H6.09743C6.44243 10.2578 6.72243 10.5378 6.72243 10.8828C6.72243 11.2278 6.44243 11.5078 6.09743 11.5078Z" fill="#3E5468"/>
<path fill-rule="evenodd" clip-rule="evenodd" d="M13.5011 14.7471C13.1561 14.7471 12.8728 14.4671 12.8728 14.1221C12.8728 13.7771 13.1486 13.4971 13.4936 13.4971H13.5011C13.8461 13.4971 14.1261 13.7771 14.1261 14.1221C14.1261 14.4671 13.8461 14.7471 13.5011 14.7471Z" fill="#3E5468"/>
<path fill-rule="evenodd" clip-rule="evenodd" d="M9.80314 14.7471C9.45814 14.7471 9.1748 14.4671 9.1748 14.1221C9.1748 13.7771 9.45064 13.4971 9.79564 13.4971H9.80314C10.1481 13.4971 10.4281 13.7771 10.4281 14.1221C10.4281 14.4671 10.1481 14.7471 9.80314 14.7471Z" fill="#3E5468"/>
<path fill-rule="evenodd" clip-rule="evenodd" d="M6.09743 14.7471C5.75243 14.7471 5.46826 14.4671 5.46826 14.1221C5.46826 13.7771 5.74493 13.4971 6.08993 13.4971H6.09743C6.44243 13.4971 6.72243 13.7771 6.72243 14.1221C6.72243 14.4671 6.44243 14.7471 6.09743 14.7471Z" fill="#3E5468"/>
<path fill-rule="evenodd" clip-rule="evenodd" d="M13.1614 4.82551C12.8164 4.82551 12.5364 4.54551 12.5364 4.20051V1.45801C12.5364 1.11301 12.8164 0.833008 13.1614 0.833008C13.5064 0.833008 13.7864 1.11301 13.7864 1.45801V4.20051C13.7864 4.54551 13.5064 4.82551 13.1614 4.82551Z" fill="#3E5468"/>
<path fill-rule="evenodd" clip-rule="evenodd" d="M6.42944 4.82551C6.08444 4.82551 5.80444 4.54551 5.80444 4.20051V1.45801C5.80444 1.11301 6.08444 0.833008 6.42944 0.833008C6.77444 0.833008 7.05444 1.11301 7.05444 1.45801V4.20051C7.05444 4.54551 6.77444 4.82551 6.42944 4.82551Z" fill="#3E5468"/>
<mask id="mask0_1386_4801" style="mask-type:alpha" maskUnits="userSpaceOnUse" x="1" y="2" width="17" height="17">
<path fill-rule="evenodd" clip-rule="evenodd" d="M1.66675 2.14844H17.9167V18.7492H1.66675V2.14844Z" fill="white"/>
</mask>
<g mask="url(#mask0_1386_4801)">
<path fill-rule="evenodd" clip-rule="evenodd" d="M6.26758 3.39844C4.10675 3.39844 2.91675 4.55094 2.91675 6.64344V14.1843C2.91675 16.3226 4.10675 17.4993 6.26758 17.4993H13.3159C15.4767 17.4993 16.6667 16.3443 16.6667 14.2476V6.64344C16.6701 5.61427 16.3934 4.81427 15.8442 4.26427C15.2792 3.6976 14.4084 3.39844 13.3234 3.39844H6.26758ZM13.3159 18.7493H6.26758C3.43008 18.7493 1.66675 17.0001 1.66675 14.1843V6.64344C1.66675 3.8701 3.43008 2.14844 6.26758 2.14844H13.3234C14.7476 2.14844 15.9251 2.5751 16.7292 3.38094C17.5101 4.1651 17.9209 5.2926 17.9167 6.6451V14.2476C17.9167 17.0243 16.1534 18.7493 13.3159 18.7493Z" fill="#3E5468"/>
</g>
</svg>
