<svg width="24" height="23" viewBox="0 0 24 23" fill="none" xmlns="http://www.w3.org/2000/svg">
<path d="M0.843604 0.906722C-0.157997 0.876294 -0.326018 2.32697 0.656024 2.52609L2.46539 2.92223C3.42248 7.49943 4.46577 12.0575 5.4775 16.6232C5.56063 16.9975 5.89279 17.2639 6.2765 17.2638H20.6445C21.7515 17.2801 21.7515 15.6117 20.6445 15.6278H6.933L6.57078 13.9925H21.3693C21.7528 13.9927 22.085 13.7262 22.1683 13.352L23.9803 5.17383C24.0933 4.66341 23.7049 4.17938 23.1819 4.17919C16.9218 4.17938 10.6621 4.179 4.40199 4.17614L3.95721 2.06671C3.891 1.75197 3.64617 1.50512 3.33188 1.43628L1.00525 0.927179C0.95198 0.915008 0.897955 0.907781 0.843355 0.90645L0.843604 0.906722ZM9.682 17.8098C8.48671 17.8098 7.50031 18.796 7.50031 19.9909C7.50031 21.1858 8.48671 22.1721 9.682 22.1721C10.8773 22.1721 11.8637 21.1858 11.8637 19.9909C11.8637 18.796 10.8773 17.8098 9.682 17.8098ZM17.3179 17.8098C16.1227 17.8098 15.1363 18.796 15.1363 19.9909C15.1363 21.1858 16.1227 22.1721 17.3179 22.1721C18.5132 22.1721 19.4996 21.1858 19.4996 19.9909C19.4996 18.796 18.5132 17.8098 17.3179 17.8098Z"/>
</svg>
