<svg width="16" height="16" viewBox="0 0 16 16" fill="none" xmlns="http://www.w3.org/2000/svg">
<path d="M12 7V12.75C12 12.9142 11.9677 13.0767 11.9048 13.2284C11.842 13.38 11.75 13.5178 11.6339 13.6339C11.5178 13.75 11.38 13.842 11.2284 13.9048C11.0767 13.9677 10.9142 14 10.75 14H3.25C2.91848 14 2.60054 13.8683 2.36612 13.6339C2.1317 13.3995 2 13.0815 2 12.75V5.25C2 4.91848 2.1317 4.60054 2.36612 4.36612C2.60054 4.1317 2.91848 4 3.25 4H8.48375" stroke="#3D3D3D" stroke-linecap="round" stroke-linejoin="round"/>
<path d="M14.3729 1.66419C14.3272 1.61402 14.2718 1.57362 14.2101 1.54545C14.1484 1.51727 14.0816 1.5019 14.0138 1.50027C13.946 1.49863 13.8785 1.51076 13.8155 1.53593C13.7525 1.5611 13.6953 1.59878 13.6472 1.64669L13.2607 2.03138C13.2138 2.07826 13.1875 2.14182 13.1875 2.2081C13.1875 2.27437 13.2138 2.33794 13.2607 2.38482L13.615 2.73857C13.6383 2.7619 13.6659 2.78042 13.6963 2.79306C13.7267 2.8057 13.7593 2.8122 13.7922 2.8122C13.8252 2.8122 13.8578 2.8057 13.8882 2.79306C13.9186 2.78042 13.9462 2.7619 13.9694 2.73857L14.3463 2.36357C14.5369 2.17325 14.5547 1.86326 14.3729 1.66419Z" fill="#30364D"/>
<path d="M12.4794 2.81244L6.83816 8.44369C6.80396 8.47776 6.7791 8.52005 6.76598 8.56651L6.50504 9.34369C6.49879 9.36478 6.49834 9.38717 6.50376 9.40848C6.50917 9.4298 6.52023 9.44927 6.53579 9.46482C6.55134 9.48037 6.5708 9.49144 6.59212 9.49685C6.61344 9.50226 6.63583 9.50182 6.65691 9.49557L7.43348 9.23463C7.47993 9.22151 7.52222 9.19665 7.55629 9.16244L13.1875 3.52057C13.2396 3.46791 13.2689 3.39683 13.2689 3.32276C13.2689 3.24868 13.2396 3.1776 13.1875 3.12494L12.8766 2.81244C12.8239 2.75987 12.7525 2.73035 12.678 2.73035C12.6036 2.73035 12.5321 2.75987 12.4794 2.81244Z" fill="#30364D"/>
</svg>
