<svg width="24" height="24" viewBox="0 0 24 24" fill="none" xmlns="http://www.w3.org/2000/svg">
<g clip-path="url(#clip0_5777_4737)">
<path d="M11.1942 0.836914C8.17055 0.937124 5.30597 2.21675 3.21417 4.40217C1.12229 6.58759 -0.0311596 9.50519 0.000640491 12.5308C0.0327422 15.5559 1.24756 18.4485 3.38553 20.5895C5.52321 22.73 8.41402 23.9487 11.4392 23.985C14.4643 24.021 17.3833 22.8715 19.5714 20.7824C21.7596 18.6934 23.0431 15.8307 23.1473 12.8067H11.194L11.1942 0.836914Z" />
<path d="M12 0.000976562V12.001H24C24 8.81828 22.7358 5.76602 20.4852 3.51595C18.2348 1.26533 15.1826 0.00111474 12.0001 0.00111474L12 0.000976562Z"/>
</g>
<defs>
<clipPath id="clip0_5777_4737">
<rect width="24" height="24"/>
</clipPath>
</defs>
</svg>
