<svg width="20" height="20" viewBox="0 0 20 20" fill="none" xmlns="http://www.w3.org/2000/svg">
<path d="M0 3C0 1.34315 1.34315 0 3 0H17C18.6569 0 20 1.34315 20 3V17C20 18.6569 18.6569 20 17 20H3C1.34315 20 0 18.6569 0 17V3Z" fill="#2F6FED"/>
<path fill-rule="evenodd" clip-rule="evenodd" d="M14.1978 6.56571C14.3545 6.61379 14.5934 6.85058 14.6595 7.02323C14.7361 7.22328 14.7284 7.48314 14.6406 7.66443C14.542 7.86792 9.38669 12.9822 9.15299 13.1083C8.92925 13.2291 8.66501 13.2291 8.44093 13.1083C8.30826 13.0368 5.93359 10.9112 5.52986 10.5025C5.37223 10.343 5.29381 10.1481 5.29672 9.92347C5.30293 9.44973 5.64856 9.13021 6.1184 9.1638C6.23115 9.17187 6.36854 9.2018 6.42369 9.23028C6.5071 9.27338 8.09031 10.6958 8.60178 11.1872L8.75101 11.3305L11.0916 8.99468C12.379 7.70997 13.4776 6.63617 13.533 6.60847C13.75 6.49995 13.943 6.48752 14.1978 6.56571Z" fill="white"/>
</svg>
