<svg width="61" height="60" viewBox="0 0 61 60" fill="none" xmlns="http://www.w3.org/2000/svg">
<circle cx="30.333" cy="30" r="30" fill="#F2EEFF"/>
<path d="M36.8439 25.875C36.7065 27.7814 35.2923 29.25 33.7501 29.25C32.2079 29.25 30.7914 27.7819 30.6564 25.875C30.5157 23.8917 31.8925 22.5 33.7501 22.5C35.6078 22.5 36.9845 23.9278 36.8439 25.875Z" stroke="#7C57FF" stroke-linecap="round" stroke-linejoin="round"/>
<path d="M33.7498 32.25C30.695 32.25 27.7573 33.7673 27.0214 36.7223C26.9239 37.1133 27.169 37.5 27.5708 37.5H39.9293C40.3311 37.5 40.5748 37.1133 40.4787 36.7223C39.7428 33.72 36.8051 32.25 33.7498 32.25Z" stroke="#7C57FF" stroke-miterlimit="10"/>
<path d="M27.375 26.7159C27.2653 28.2384 26.1225 29.4375 24.8906 29.4375C23.6587 29.4375 22.514 28.2389 22.4062 26.7159C22.2942 25.132 23.4065 24 24.8906 24C26.3746 24 27.487 25.1611 27.375 26.7159Z" stroke="#7C57FF" stroke-linecap="round" stroke-linejoin="round"/>
<path d="M27.6567 32.3438C26.8106 31.9562 25.8787 31.8071 24.8911 31.8071C22.4536 31.8071 20.1051 33.0188 19.5169 35.379C19.4395 35.6912 19.6355 36.0001 19.9561 36.0001H25.2192" stroke="#7C57FF" stroke-miterlimit="10" stroke-linecap="round"/>
</svg>
