<svg width="20" height="20" viewBox="0 0 20 20" fill="none" xmlns="http://www.w3.org/2000/svg">
<g clip-path="url(#clip0_1924_50140)">
<path d="M3.33341 2.40065H3.23341V2.50065V14.0673H1.76675V2.50065C1.76675 1.63505 2.46781 0.933984 3.33341 0.933984H13.2334V2.40065H3.33341ZM15.8334 17.6007H15.9334V17.5007V5.83398V5.73398H15.8334H6.66675H6.56675V5.83398V17.5007V17.6007H6.66675H15.8334ZM6.66675 4.26732H15.8334C16.699 4.26732 17.4001 4.96838 17.4001 5.83398V17.5007C17.4001 18.3663 16.699 19.0673 15.8334 19.0673H6.66675C5.80114 19.0673 5.10008 18.3663 5.10008 17.5007V5.83398C5.10008 4.96838 5.80114 4.26732 6.66675 4.26732Z" stroke="white" stroke-width="0.2"/>
</g>
<defs>
<clipPath id="clip0_1924_50140">
<rect width="20" height="20" fill="white"/>
</clipPath>
</defs>
</svg>
