<svg width="48" height="48" viewBox="0 0 48 48" fill="none" xmlns="http://www.w3.org/2000/svg">
<ellipse cx="23.9131" cy="24" rx="23.4795" ry="24" fill="#2B69F0"/>
<mask id="mask0_8706_177199" style="mask-type:luminance" maskUnits="userSpaceOnUse" x="0" y="0" width="48" height="48">
<ellipse cx="23.9131" cy="24" rx="23.4795" ry="24" fill="white"/>
</mask>
<g mask="url(#mask0_8706_177199)">
<rect width="7.8594" height="53.6314" transform="matrix(0.84205 0.539399 -0.520476 0.853876 34.3828 -0.794922)" fill="white" fill-opacity="0.101961"/>
</g>
<path d="M25 28V18C25 17.4477 24.5523 17 24 17H16C15.4477 17 15 17.4477 15 18V28C15 28.5523 15.4477 29 16 29H17M25 28C25 28.5523 24.5523 29 24 29H21M25 28L25 20C25 19.4477 25.4477 19 26 19H28.5858C28.851 19 29.1054 19.1054 29.2929 19.2929L32.7071 22.7071C32.8946 22.8946 33 23.149 33 23.4142V28C33 28.5523 32.5523 29 32 29H31M25 28C25 28.5523 25.4477 29 26 29H27M17 29C17 30.1046 17.8954 31 19 31C20.1046 31 21 30.1046 21 29M17 29C17 27.8954 17.8954 27 19 27C20.1046 27 21 27.8954 21 29M27 29C27 30.1046 27.8954 31 29 31C30.1046 31 31 30.1046 31 29M27 29C27 27.8954 27.8954 27 29 27C30.1046 27 31 27.8954 31 29" stroke="white" stroke-width="2"/>
</svg>
