<svg width="8" height="16" viewBox="0 0 8 16" fill="none" xmlns="http://www.w3.org/2000/svg">
<path d="M1.57792 2.94444C1.8971 2.94444 2.15584 2.62109 2.15584 2.22222C2.15584 1.82335 1.8971 1.5 1.57792 1.5C1.25874 1.5 1 1.82335 1 2.22222C1 2.62109 1.25874 2.94444 1.57792 2.94444Z" fill="#727782" stroke="#727782" stroke-width="2" stroke-linecap="round" stroke-linejoin="round"/>
<path d="M6.20134 2.94444C6.52051 2.94444 6.77926 2.62109 6.77926 2.22222C6.77926 1.82335 6.52051 1.5 6.20134 1.5C5.88216 1.5 5.62341 1.82335 5.62341 2.22222C5.62341 2.62109 5.88216 2.94444 6.20134 2.94444Z" fill="#727782" stroke="#727782" stroke-width="2" stroke-linecap="round" stroke-linejoin="round"/>
<path d="M1.57792 8.72179C1.8971 8.72179 2.15584 8.39844 2.15584 7.99957C2.15584 7.60069 1.8971 7.27734 1.57792 7.27734C1.25874 7.27734 1 7.60069 1 7.99957C1 8.39844 1.25874 8.72179 1.57792 8.72179Z" fill="#727782" stroke="#727782" stroke-width="2" stroke-linecap="round" stroke-linejoin="round"/>
<path d="M6.20134 8.72179C6.52051 8.72179 6.77926 8.39844 6.77926 7.99957C6.77926 7.60069 6.52051 7.27734 6.20134 7.27734C5.88216 7.27734 5.62341 7.60069 5.62341 7.99957C5.62341 8.39844 5.88216 8.72179 6.20134 8.72179Z" fill="#727782" stroke="#727782" stroke-width="2" stroke-linecap="round" stroke-linejoin="round"/>
<path d="M1.57792 14.4991C1.8971 14.4991 2.15584 14.1758 2.15584 13.7769C2.15584 13.378 1.8971 13.0547 1.57792 13.0547C1.25874 13.0547 1 13.378 1 13.7769C1 14.1758 1.25874 14.4991 1.57792 14.4991Z" fill="#727782" stroke="#727782" stroke-width="2" stroke-linecap="round" stroke-linejoin="round"/>
<path d="M6.20134 14.4991C6.52051 14.4991 6.77926 14.1758 6.77926 13.7769C6.77926 13.378 6.52051 13.0547 6.20134 13.0547C5.88216 13.0547 5.62341 13.378 5.62341 13.7769C5.62341 14.1758 5.88216 14.4991 6.20134 14.4991Z" fill="#727782" stroke="#727782" stroke-width="2" stroke-linecap="round" stroke-linejoin="round"/>
</svg>
