<svg width="14" height="14" viewBox="0 0 14 14" fill="none" xmlns="http://www.w3.org/2000/svg">
<path d="M10.0779 1.4994C10.2368 1.34045 10.4255 1.21437 10.6332 1.12835C10.8409 1.04232 11.0635 0.998047 11.2883 0.998047C11.513 0.998047 11.7356 1.04232 11.9433 1.12835C12.151 1.21437 12.3397 1.34045 12.4986 1.4994C12.6576 1.65835 12.7837 1.84705 12.8697 2.05473C12.9557 2.26241 13 2.485 13 2.70979C13 2.93458 12.9557 3.15716 12.8697 3.36484C12.7837 3.57252 12.6576 3.76122 12.4986 3.92017L4.32855 12.0903L1 12.998L1.90779 9.66949L10.0779 1.4994Z" stroke="" stroke-width="1.5" stroke-linecap="round" stroke-linejoin="round"/>
</svg>
