<svg width="20" height="21" viewBox="0 0 20 21" fill="none" xmlns="http://www.w3.org/2000/svg">
<path d="M9.1665 3.63965H3.33317C2.89114 3.63965 2.46722 3.81524 2.15466 4.1278C1.8421 4.44036 1.6665 4.86429 1.6665 5.30632V16.973C1.6665 17.415 1.8421 17.8389 2.15466 18.1515C2.46722 18.4641 2.89114 18.6396 3.33317 18.6396H14.9998C15.4419 18.6396 15.8658 18.4641 16.1783 18.1515C16.4909 17.8389 16.6665 17.415 16.6665 16.973V11.1396" stroke="#7E7E7E" stroke-width="1.5" stroke-linecap="round" stroke-linejoin="round"/>
<path d="M15.4165 2.38984C15.748 2.05832 16.1977 1.87207 16.6665 1.87207C17.1353 1.87207 17.585 2.05832 17.9165 2.38984C18.248 2.72136 18.4343 3.171 18.4343 3.63984C18.4343 4.10868 18.248 4.55832 17.9165 4.88984L9.99984 12.8065L6.6665 13.6398L7.49984 10.3065L15.4165 2.38984Z" stroke="#7E7E7E" stroke-width="1.5" stroke-linecap="round" stroke-linejoin="round"/>
</svg>
