<svg width="16" height="22" viewBox="0 0 16 22" fill="none" xmlns="http://www.w3.org/2000/svg">
<path fill-rule="evenodd" clip-rule="evenodd" d="M14.1765 2.00021C14.8814 2.00021 15.4576 2.59489 15.4978 3.34489L15.5 3.42875V20.5715C15.5 21.3323 14.949 21.9541 14.2543 21.9976L14.1765 22H1.82354C1.11861 22 0.542376 21.4053 0.502216 20.6553L0.5 20.5715V7.39443C0.5 7.04717 0.617142 6.71284 0.827788 6.45325L0.887612 6.38438L4.56195 2.41837C4.78958 2.17284 5.09137 2.02583 5.41046 2.00319L5.49791 2L14.1765 2.00021ZM14.6177 18.1907H1.38215V20.5716C1.38215 20.8158 1.55247 21.017 1.77184 21.0446L1.8234 21.0478H14.1763C14.4026 21.0478 14.589 20.864 14.6146 20.627L14.6176 20.5715L14.6177 18.1907ZM4.73528 19.143C4.83263 19.143 4.91166 19.2283 4.91166 19.3335V19.9049C4.91166 20.01 4.83263 20.0953 4.73528 20.0953H4.20586C4.10837 20.0953 4.02934 20.01 4.02934 19.9049V19.3335C4.02934 19.2283 4.10837 19.143 4.20586 19.143H4.73528ZM10.0295 19.143C10.1268 19.143 10.2059 19.2283 10.2059 19.3335V19.9049C10.2059 20.01 10.1269 20.0953 10.0295 20.0953H9.50008C9.40259 20.0953 9.32355 20.01 9.32355 19.9049V19.3335C9.32355 19.2283 9.40258 19.143 9.50008 19.143H10.0295ZM11.7941 19.143C11.8916 19.143 11.9707 19.2283 11.9707 19.3335V19.9049C11.9707 20.01 11.8916 20.0953 11.7941 20.0953H11.2647C11.1674 20.0953 11.0883 20.01 11.0883 19.9049V19.3335C11.0883 19.2283 11.1674 19.143 11.2647 19.143H11.7941ZM13.5589 19.143C13.6564 19.143 13.7355 19.2283 13.7355 19.3335V19.9049C13.7355 20.01 13.6564 20.0953 13.5589 20.0953H13.0295C12.932 20.0953 12.853 20.01 12.853 19.9049V19.3335C12.853 19.2283 12.932 19.143 13.0295 19.143H13.5589ZM2.97049 19.143C3.06799 19.143 3.14702 19.2283 3.14702 19.3335V19.9049C3.14702 20.01 3.06799 20.0953 2.97049 20.0953H2.44107C2.34358 20.0953 2.26455 20.01 2.26455 19.9049V19.3335C2.26455 19.2283 2.34358 19.143 2.44107 19.143H2.97049ZM6.49992 19.143C6.59741 19.143 6.67645 19.2283 6.67645 19.3335V19.9049C6.67645 20.01 6.59742 20.0953 6.49992 20.0953H5.9705C5.87315 20.0953 5.79412 20.01 5.79412 19.9049V19.3335C5.79412 19.2283 5.87315 19.143 5.9705 19.143H6.49992ZM8.26471 19.143C8.3622 19.143 8.44124 19.2283 8.44124 19.3335V19.9049C8.44124 20.01 8.36221 20.0953 8.26471 20.0953H7.73529C7.6378 20.0953 7.55877 20.01 7.55877 19.9049V19.3335C7.55877 19.2283 7.63779 19.143 7.73529 19.143H8.26471ZM14.6178 10.5716H1.38223V17.2381H14.6178V10.5716ZM4.33035 11.7622C4.65725 11.7622 4.94191 11.8226 5.18431 11.9436C5.42672 12.0646 5.61492 12.2304 5.74905 12.4407C5.86634 12.6247 5.93518 12.8285 5.95541 13.052L5.96117 13.149V13.1609L5.95718 13.1911C5.95187 13.21 5.94123 13.2268 5.92543 13.2413C5.90947 13.2558 5.89234 13.2655 5.87387 13.2705L5.84551 13.274H5.31106L5.28004 13.2719C5.25108 13.2679 5.22848 13.2577 5.21194 13.2413C5.18978 13.2194 5.17146 13.1807 5.15684 13.1252C5.10174 12.8792 5.00617 12.7056 4.87027 12.6043C4.73437 12.5032 4.55445 12.4525 4.33037 12.4525C3.83018 12.4525 3.55825 12.7405 3.51438 13.3164L3.50803 13.4544L3.50448 13.7226L3.50537 14.1922L3.50951 14.405C3.53152 15.0399 3.80524 15.3573 4.33037 15.3573C4.55077 15.3573 4.72979 15.3068 4.86762 15.2055C5.0053 15.1043 5.10176 14.9307 5.15686 14.6846C5.17148 14.6292 5.1898 14.5904 5.21195 14.5686C5.2285 14.5523 5.2511 14.5421 5.28005 14.538L5.31107 14.5359H5.84552L5.87699 14.5399C5.89708 14.5451 5.91495 14.5557 5.9309 14.5716C5.95469 14.5954 5.96488 14.6252 5.96119 14.6609C5.9538 14.9228 5.88319 15.159 5.74906 15.3693C5.61493 15.5795 5.42674 15.7452 5.18432 15.8662C4.9419 15.9872 4.65724 16.0478 4.33036 16.0478C3.82356 16.0478 3.43148 15.9078 3.15422 15.6282C2.8768 15.3484 2.72909 14.9506 2.71064 14.4347L2.7062 14.185V13.6317L2.71064 13.3752C2.7291 12.8672 2.87785 12.4715 3.1569 12.1877C3.43609 11.9039 3.82725 11.7622 4.33035 11.7622ZM7.92804 11.7622C8.23278 11.7622 8.4963 11.8197 8.71862 11.9347C8.94078 12.0498 9.10978 12.1936 9.22542 12.3663C9.34106 12.5389 9.40269 12.7105 9.40992 12.8811C9.40992 12.9128 9.39899 12.9417 9.37683 12.9675C9.36221 12.9847 9.34507 12.996 9.32543 13.0018L9.29426 13.0061H8.77089L8.73263 13.0032C8.67236 12.9932 8.63011 12.9586 8.60559 12.8989C8.58727 12.772 8.51563 12.6658 8.39066 12.5805C8.26584 12.4952 8.11162 12.4525 7.92802 12.4525C7.72594 12.4525 7.56714 12.4943 7.45147 12.5775C7.33565 12.6609 7.2779 12.7819 7.2779 12.9407C7.2779 13.0478 7.30729 13.1371 7.36594 13.2086C7.42473 13.28 7.51661 13.3425 7.64143 13.3961C7.67718 13.4114 7.71751 13.4271 7.76241 13.4436L7.91131 13.4946L8.08799 13.5491C8.11989 13.5584 8.15283 13.5679 8.18696 13.5775C8.51371 13.6569 8.77371 13.7462 8.96646 13.8454C9.15923 13.9447 9.30163 14.0697 9.39336 14.2203C9.48524 14.3712 9.53118 14.5636 9.53118 14.7978C9.53118 15.0556 9.46589 15.2788 9.3356 15.4674C9.20516 15.6559 9.02155 15.7997 8.78462 15.8989C8.54768 15.9982 8.27324 16.0478 7.96095 16.0478C7.63051 16.0478 7.34762 15.9942 7.11259 15.8871C6.87758 15.7799 6.69942 15.639 6.57814 15.4644C6.45702 15.2898 6.39261 15.0993 6.38537 14.893C6.38537 14.8613 6.3963 14.8324 6.41846 14.8067C6.43308 14.7895 6.45022 14.778 6.46986 14.7723L6.50103 14.768H7.0024L7.04036 14.7713C7.06399 14.7756 7.08438 14.7846 7.10152 14.7978C7.12722 14.8176 7.15115 14.8453 7.17316 14.881C7.20994 15.0161 7.2934 15.1291 7.42383 15.2203C7.55427 15.3117 7.7333 15.3573 7.96093 15.3573C8.21811 15.3573 8.41177 15.3107 8.5422 15.2174C8.67264 15.1242 8.73778 14.9961 8.73778 14.8335C8.73778 14.7264 8.70469 14.6371 8.63866 14.5657C8.57248 14.4942 8.47248 14.4317 8.33835 14.3782L8.20747 14.3295L8.04469 14.2757L7.85 14.2163C7.81484 14.206 7.77835 14.1955 7.74069 14.1846C7.30728 14.0735 6.98955 13.9268 6.78746 13.7443C6.58553 13.5617 6.48449 13.2997 6.48449 12.9585C6.48449 12.7283 6.54329 12.523 6.66087 12.3425C6.77831 12.1618 6.94641 12.0199 7.16488 11.9168C7.3835 11.8136 7.63773 11.7621 7.928 11.7621L7.92804 11.7622ZM10.4898 11.8216L10.5239 11.8242C10.5562 11.8294 10.5834 11.8425 10.6056 11.8632C10.6251 11.8817 10.6406 11.9012 10.652 11.9214L10.6661 11.9525L11.5858 14.9992L12.5117 11.9525L12.5228 11.9214C12.5325 11.9012 12.5472 11.8817 12.5668 11.8632C12.5888 11.8425 12.616 11.8294 12.6483 11.8242L12.6825 11.8216H13.1783L13.2067 11.8256C13.2252 11.8309 13.2423 11.8414 13.2583 11.8573C13.2741 11.8733 13.2847 11.8918 13.29 11.9128L13.294 11.9466L13.2829 12.0002L12.1095 15.8216L12.0916 15.8658C12.0584 15.9338 12.0071 15.9735 11.9381 15.9849L11.8947 15.9882H11.2831L11.2382 15.9849C11.1675 15.9735 11.1162 15.9338 11.0847 15.8658L11.0682 15.8216L9.88925 12.0002L9.88615 11.9863C9.88452 11.9758 9.88378 11.9626 9.88378 11.9466C9.88378 11.9109 9.89471 11.8811 9.91687 11.8573C9.93149 11.8414 9.94863 11.8309 9.96828 11.8256L9.99945 11.8216H10.4898ZM14.1763 2.95273H5.79409V6.28609C5.79409 7.04694 5.24311 7.66873 4.54825 7.71224L4.47055 7.71463H1.3822V9.61943H14.6177V3.42887C14.6177 3.18461 14.4474 2.9834 14.2281 2.95581L14.1763 2.95273ZM4.91147 3.3875L1.78485 6.76233H4.47038C4.69654 6.76233 4.88311 6.5785 4.90852 6.34156L4.91147 6.28607L4.91147 3.3875Z" fill="#354453"/>
<rect x="9.5" width="2" height="6" fill="#354453"/>
<path d="M10.5 8L13.9641 4.25H7.0359L10.5 8Z" fill="#354453"/>
</svg>
