<svg width="18" height="19" viewBox="0 0 18 19" fill="none" xmlns="http://www.w3.org/2000/svg">
<g clip-path="url(#clip0_4544_5655)">
<path d="M14.839 15.2463C18.0649 12.0204 18.0649 6.79015 14.839 3.56424C11.6131 0.338324 6.38287 0.338324 3.15695 3.56424C-0.0689613 6.79015 -0.0689613 12.0204 3.15695 15.2463C6.38287 18.4722 11.6131 18.4722 14.839 15.2463Z" fill="#FF725E"/>
<path fill-rule="evenodd" clip-rule="evenodd" d="M8.99993 12.761C9.46318 12.761 9.83868 13.1365 9.83868 13.5997C9.83868 14.063 9.46314 14.4385 8.99993 14.4385C8.53671 14.4385 8.16113 14.063 8.16113 13.5997C8.16113 13.1365 8.53667 12.761 8.99993 12.761ZM8.99993 4.37109C9.38151 4.37109 9.6937 4.68328 9.6937 5.06487V10.7901C9.6937 11.1716 9.38151 11.4838 8.99993 11.4838C8.61834 11.4838 8.30615 11.1716 8.30615 10.7901V5.06487C8.30615 4.68328 8.61834 4.37109 8.99993 4.37109Z" fill="#EDEFF3"/>
</g>
<defs>
<clipPath id="clip0_4544_5655">
<rect width="18" height="18" fill="white" transform="translate(0 0.405273)"/>
</clipPath>
</defs>
</svg>
