<svg width="32" height="32" viewBox="0 0 32 32" fill="none" xmlns="http://www.w3.org/2000/svg">
<path d="M13.658 15.5789C12.6281 15.5789 11.6174 15.3165 10.733 14.8201C8.18911 13.3928 7.012 10.2484 7.99477 7.50554C8.85302 5.10943 11.152 3.5 13.7162 3.5C14.0578 3.5 14.4011 3.52968 14.7368 3.58786C17.5862 4.08652 19.7344 6.6473 19.7344 9.54381C19.7344 10.9147 19.2625 12.2582 18.406 13.3259C17.2743 14.7369 15.4991 15.5789 13.658 15.5789ZM13.7162 4.66373C11.6745 4.66373 9.77236 5.99328 9.09042 7.89772C8.29734 10.1129 9.2481 12.6527 11.3027 13.8054C12.0131 14.2045 12.8277 14.4152 13.658 14.4152C15.1494 14.4152 16.5854 13.7355 17.4989 12.598C18.1902 11.7368 18.5713 10.6517 18.5713 9.54439C18.5713 7.20472 16.8368 5.13736 14.5367 4.73471C14.2667 4.68758 13.9909 4.66373 13.7162 4.66373Z" fill="#17AC88"/>
<path d="M18.6989 15.5913H8.68098C8.3598 15.5913 8.09912 15.3312 8.09912 15.0095C8.09912 14.6877 8.3598 14.4276 8.68098 14.4276H18.6995C19.0207 14.4276 19.2814 14.6877 19.2814 15.0095C19.2814 15.3312 19.0207 15.5913 18.6989 15.5913Z" fill="#17AC88"/>
<path d="M4.58186 19.6894C4.26067 19.6894 4 19.4293 4 19.1075C4 16.527 6.09936 14.4276 8.67992 14.4276C9.00111 14.4276 9.26178 14.6877 9.26178 15.0095C9.26178 15.3312 9.00111 15.5913 8.67992 15.5913C6.74057 15.5913 5.16373 17.1688 5.16373 19.1075C5.16373 19.4287 4.90305 19.6894 4.58186 19.6894Z" fill="#17AC88"/>
<path d="M4.58186 24.6714C4.26067 24.6714 4 24.4113 4 24.0896V19.1059C4 18.7841 4.26067 18.524 4.58186 18.524C4.90305 18.524 5.16373 18.7841 5.16373 19.1059V24.0896C5.16373 24.4113 4.90305 24.6714 4.58186 24.6714Z" fill="#17AC88"/>
<path d="M5.74559 25.8366C4.78319 25.8366 4 25.0534 4 24.091C4 23.7692 4.26067 23.5092 4.58186 23.5092C4.90305 23.5092 5.16373 23.7692 5.16373 24.091C5.16373 24.4122 5.42498 24.6729 5.74559 24.6729C6.06678 24.6729 6.32745 24.933 6.32745 25.2547C6.32745 25.5765 6.06678 25.8366 5.74559 25.8366Z" fill="#17AC88"/>
<path d="M14.0686 25.8358H5.75032C5.42913 25.8358 5.16846 25.5758 5.16846 25.254C5.16846 24.9322 5.42913 24.6721 5.75032 24.6721H14.0686C14.3898 24.6721 14.6505 24.9322 14.6505 25.254C14.6505 25.5758 14.3898 25.8358 14.0686 25.8358Z" fill="#17AC88"/>
<path d="M20.193 27.8814C16.7783 27.8814 14 25.1034 14 21.6884C14 18.2762 16.7783 15.5 20.193 15.5C23.6052 15.5 26.3812 18.2762 26.3812 21.6884C26.3812 25.1034 23.6052 27.8814 20.193 27.8814ZM20.193 16.4412C17.2971 16.4412 14.9412 18.795 14.9412 21.6884C14.9412 24.5841 17.2971 26.9403 20.193 26.9403C23.0862 26.9403 25.44 24.5841 25.44 21.6884C25.44 18.795 23.0862 16.4412 20.193 16.4412Z" fill="#17AC88"/>
<path d="M20.4319 25.5L18.7169 22.5056V22.1063H18.9165C19.2371 22.1063 19.5063 22.076 19.7241 22.0156C19.9479 21.9551 20.1233 21.8552 20.2504 21.7161C20.3774 21.577 20.453 21.3864 20.4772 21.1444H18.7169V20.5637H20.4681C20.4258 20.3399 20.3411 20.1584 20.2141 20.0193C20.087 19.8741 19.9146 19.7682 19.6969 19.7017C19.4851 19.6351 19.225 19.6019 18.9165 19.6019H18.7169V19.0211H22.4735V19.6019H20.7585C20.8977 19.7168 21.0126 19.8529 21.1033 20.0102C21.1941 20.1675 21.2515 20.352 21.2757 20.5637H22.4735V21.1444H21.2939C21.2515 21.586 21.0822 21.9309 20.7857 22.1789C20.4954 22.4209 20.1082 22.5751 19.6243 22.6417L21.3574 25.5H20.4319Z" fill="#17AC88"/>
</svg>
