<svg width="20" height="21" viewBox="0 0 20 21" fill="none" xmlns="http://www.w3.org/2000/svg">
<path fill-rule="evenodd" clip-rule="evenodd" d="M17.7387 11.9833C17.2512 14.7483 15.3181 17.0147 12.7478 17.9741V14.7309C12.7478 14.0022 13.0373 13.3034 13.5526 12.7881C14.0678 12.2728 14.7667 11.9833 15.4954 11.9833H17.7387ZM6.5934 17.6931C3.95946 16.424 2.14174 13.729 2.14174 10.6095C2.14174 8.7983 2.7546 7.13019 3.78403 5.80119H7.9672C8.69592 5.80119 9.39477 6.09066 9.91006 6.60593C10.4253 7.12122 10.7148 7.82007 10.7148 8.54879C10.7148 9.2775 10.4253 9.97636 9.91006 10.4916C9.39477 11.0069 8.69592 11.2964 7.9672 11.2964C7.60285 11.2964 7.25342 11.4411 6.99577 11.6988C6.73813 11.9564 6.5934 12.3058 6.5934 12.6702V17.6931ZM10.0001 0.608398C15.5235 0.608398 20.0012 5.08606 20.0012 10.6095C20.0012 16.1331 15.5235 20.6107 10.0001 20.6107C4.4766 20.6107 -0.00111198 16.1331 -0.00111198 10.6095C-0.00111198 5.08606 4.4766 0.608398 10.0001 0.608398Z" fill="#606060"/>
</svg>
