<svg width="7" height="6" viewBox="0 0 7 6" fill="none" xmlns="http://www.w3.org/2000/svg">
<path d="M3.5 0C4.09334 0 4.67336 0.175947 5.16671 0.505591C5.66006 0.835235 6.04457 1.30377 6.27164 1.85195C6.4987 2.40013 6.55811 3.00333 6.44235 3.58527C6.3266 4.16721 6.04088 4.70176 5.62132 5.12132C5.20176 5.54088 4.66721 5.8266 4.08527 5.94235C3.50333 6.05811 2.90013 5.9987 2.35195 5.77164C1.80377 5.54457 1.33524 5.16006 1.00559 4.66671C0.675947 4.17336 0.5 3.59334 0.5 3C0.5 2.20435 0.81607 1.44129 1.37868 0.87868C1.94129 0.31607 2.70435 0 3.5 0Z" fill="#17AC88"/>
</svg>
