<svg width="7" height="7" viewBox="0 0 7 7" fill="none" xmlns="http://www.w3.org/2000/svg">
<path d="M3.34375 0.5C3.93709 0.5 4.51711 0.675947 5.01046 1.00559C5.50381 1.33524 5.88832 1.80377 6.11539 2.35195C6.34245 2.90013 6.40186 3.50333 6.2861 4.08527C6.17035 4.66721 5.88463 5.20176 5.46507 5.62132C5.04551 6.04088 4.51096 6.3266 3.92902 6.44235C3.34708 6.55811 2.74388 6.4987 2.1957 6.27164C1.64752 6.04457 1.17899 5.66006 0.849341 5.16671C0.519697 4.67336 0.34375 4.09334 0.34375 3.5C0.34375 2.70435 0.65982 1.94129 1.22243 1.37868C1.78504 0.81607 2.5481 0.5 3.34375 0.5Z" fill="#E9E9E9"/>
</svg>
