<svg width="32" height="32" viewBox="0 0 32 32" fill="none" xmlns="http://www.w3.org/2000/svg">
<path d="M15.9671 15.4123C14.9372 15.4123 13.9265 15.1498 13.0421 14.6535C10.4982 13.2262 9.32109 10.0818 10.3039 7.33892C11.1621 4.94281 13.461 3.33337 16.0253 3.33337C16.3669 3.33337 16.7102 3.36305 17.0459 3.42124C19.8953 3.91989 22.0435 6.48067 22.0435 9.37718C22.0435 10.7481 21.5716 12.0916 20.7151 13.1593C19.5834 14.5703 17.8081 15.4123 15.9671 15.4123ZM16.0253 4.4971C13.9836 4.4971 12.0814 5.82666 11.3995 7.73109C10.6064 9.94624 11.5572 12.4861 13.6117 13.6387C14.3222 14.0379 15.1368 14.2485 15.9671 14.2485C17.4584 14.2485 18.8945 13.5689 19.808 12.4314C20.4993 11.5702 20.8804 10.485 20.8804 9.37776C20.8804 7.03809 19.1458 4.97074 16.8457 4.56809C16.5757 4.52096 16.2999 4.4971 16.0253 4.4971Z" fill="#17AC88"/>
<path d="M23.8119 11.982C22.768 11.982 21.7532 11.588 20.9625 10.827C20.7309 10.6041 20.7239 10.2352 20.9468 10.0042C21.1696 9.7732 21.5385 9.76622 21.7695 9.98849C22.9018 11.0783 24.3181 10.9451 25.2677 10.4569C26.2173 9.96812 27.1506 8.89168 26.9213 7.33519C26.6793 5.69376 25.348 4.94839 24.282 4.80933C23.216 4.67026 21.7364 5.04964 21.0812 6.57528C20.9537 6.87087 20.611 7.00644 20.3172 6.88018C20.0216 6.75333 19.8854 6.41061 20.0123 6.11619C20.7635 4.36828 22.4951 3.40297 24.4333 3.65549C26.3674 3.90802 27.7965 5.28587 28.0734 7.16587C28.3358 8.94812 27.4438 10.646 25.8012 11.492C25.1595 11.8202 24.4793 11.982 23.8119 11.982Z" fill="#17AC88"/>
<path d="M21.008 15.4247H10.9901C10.6689 15.4247 10.4082 15.1646 10.4082 14.8428C10.4082 14.5211 10.6689 14.261 10.9901 14.261H21.0086C21.3298 14.261 21.5904 14.5211 21.5904 14.8428C21.5904 15.1646 21.3298 15.4247 21.008 15.4247Z" fill="#17AC88"/>
<path d="M6.89094 19.5228C6.56976 19.5228 6.30908 19.2627 6.30908 18.9409C6.30908 16.3603 8.40844 14.261 10.989 14.261C11.3102 14.261 11.5709 14.5211 11.5709 14.8428C11.5709 15.1646 11.3102 15.4247 10.989 15.4247C9.04966 15.4247 7.47281 17.0021 7.47281 18.9409C7.47281 19.2621 7.21213 19.5228 6.89094 19.5228Z" fill="#17AC88"/>
<path d="M8.19746 11.9903C7.47013 11.9903 6.72884 11.7954 6.03584 11.3986C4.35891 10.4391 3.55827 8.63533 3.99699 6.80421C4.42059 5.03593 5.89386 3.79074 7.75233 3.63189C9.6044 3.47013 11.2709 4.44766 11.9883 6.11703C12.1151 6.41203 11.9784 6.75475 11.6834 6.88101C11.3884 7.00728 11.0457 6.87112 10.9188 6.57612C10.2927 5.11971 8.92362 4.69786 7.85183 4.79096C6.77771 4.8829 5.49878 5.53109 5.1293 7.07477C4.74643 8.67431 5.68963 9.86015 6.61479 10.3891C7.54054 10.9191 9.04291 11.1315 10.2305 9.98932C10.4621 9.76705 10.831 9.77403 11.0532 10.005C11.2761 10.2366 11.2691 10.6049 11.0375 10.8278C10.2386 11.5964 9.23201 11.9903 8.19746 11.9903Z" fill="#17AC88"/>
<path d="M4.56468 18.8383H3.19905C2.87786 18.8383 2.61719 18.5782 2.61719 18.2564C2.61719 17.9347 2.87786 17.6746 3.19905 17.6746H4.56526C4.88645 17.6746 5.14713 17.9347 5.14713 18.2564C5.14713 18.5782 4.88587 18.8383 4.56468 18.8383Z" fill="#17AC88"/>
<path d="M2.03596 17.674C1.71478 17.674 1.4541 17.4139 1.4541 17.0921V14.1578C1.4541 12.3302 2.94076 10.8435 4.76839 10.8435H8.1077C8.42889 10.8435 8.68957 11.1036 8.68957 11.4254C8.68957 11.7471 8.42889 12.0072 8.1077 12.0072H4.76839C3.58197 12.0072 2.61783 12.972 2.61783 14.1578V17.0921C2.61783 17.4133 2.35715 17.674 2.03596 17.674Z" fill="#17AC88"/>
<path d="M3.19969 18.8389C2.23729 18.8389 1.4541 18.0557 1.4541 17.0933C1.4541 16.7716 1.71478 16.5115 2.03596 16.5115C2.35715 16.5115 2.61783 16.7716 2.61783 17.0933C2.61783 17.4145 2.87908 17.6752 3.19969 17.6752C3.52088 17.6752 3.78155 17.9353 3.78155 18.2571C3.78155 18.5788 3.52088 18.8389 3.19969 18.8389Z" fill="#17AC88"/>
<path d="M6.89094 24.5048C6.56976 24.5048 6.30908 24.2447 6.30908 23.9229V18.9393C6.30908 18.6175 6.56976 18.3574 6.89094 18.3574C7.21213 18.3574 7.47281 18.6175 7.47281 18.9393V23.9229C7.47281 24.2447 7.21213 24.5048 6.89094 24.5048Z" fill="#17AC88"/>
<path d="M8.05467 25.67C7.09227 25.67 6.30908 24.8868 6.30908 23.9244C6.30908 23.6026 6.56976 23.3425 6.89094 23.3425C7.21213 23.3425 7.47281 23.6026 7.47281 23.9244C7.47281 24.2456 7.73406 24.5063 8.05467 24.5063C8.37586 24.5063 8.63653 24.7663 8.63653 25.0881C8.63653 25.4099 8.37586 25.67 8.05467 25.67Z" fill="#17AC88"/>
<path d="M29.9627 17.5256C29.6415 17.5256 29.3808 17.2655 29.3808 16.9438V14.1578C29.3808 12.972 28.4161 12.0072 27.2303 12.0072H23.8909C23.5698 12.0072 23.3091 11.7471 23.3091 11.4254C23.3091 11.1036 23.5698 10.8435 23.8909 10.8435H27.2303C29.0579 10.8435 30.5445 12.3307 30.5445 14.1578V16.9438C30.5445 17.2655 30.2839 17.5256 29.9627 17.5256Z" fill="#17AC88"/>
<path d="M16.3777 25.6692H8.0594C7.73821 25.6692 7.47754 25.4091 7.47754 25.0874C7.47754 24.7656 7.73821 24.5055 8.0594 24.5055H16.3777C16.6989 24.5055 16.9596 24.7656 16.9596 25.0874C16.9596 25.4091 16.6989 25.6692 16.3777 25.6692Z" fill="#17AC88"/>
<path d="M24.1489 26.1371C22.2567 26.1371 20.6577 24.5382 20.6577 22.646C20.6577 20.7537 22.2567 19.1548 24.1489 19.1548C26.0411 19.1548 27.6401 20.7537 27.6401 22.646C27.6401 24.5382 26.0411 26.1371 24.1489 26.1371ZM24.1489 20.3185C22.8874 20.3185 21.8214 21.3845 21.8214 22.646C21.8214 23.9074 22.8874 24.9734 24.1489 24.9734C25.4104 24.9734 26.4763 23.9074 26.4763 22.646C26.4763 21.3845 25.4104 20.3185 24.1489 20.3185Z" fill="#17AC88"/>
<path d="M21.7833 19.2194C21.6326 19.2194 21.4837 19.1606 21.3714 19.0489L20.5271 18.2046C20.2996 17.9771 20.2996 17.6094 20.5271 17.3818C20.7546 17.1543 21.1223 17.1543 21.3498 17.3818L21.8898 17.9224C22.0568 17.8421 22.2273 17.7717 22.4013 17.7106V16.9466C22.4013 16.6248 22.6619 16.3647 22.9831 16.3647C23.3043 16.3647 23.565 16.6248 23.565 16.9466V18.1412C23.565 18.4065 23.3852 18.6381 23.1286 18.705C22.7608 18.7993 22.4077 18.9459 22.0783 19.1397C21.9864 19.1932 21.8846 19.2194 21.7833 19.2194Z" fill="#17AC88"/>
<path d="M19.6381 22.0654H18.4442C18.123 22.0654 17.8623 21.8053 17.8623 21.4836C17.8623 21.1618 18.123 20.9017 18.4442 20.9017H19.2082C19.2692 20.7277 19.3402 20.5567 19.42 20.3903L18.88 19.8497C18.6525 19.6222 18.6525 19.2545 18.88 19.027C19.1075 18.7994 19.4752 18.7994 19.7027 19.027L20.547 19.8712C20.7344 20.0586 20.7716 20.3495 20.6366 20.5782C20.4429 20.9064 20.2968 21.2601 20.2014 21.629C20.1356 21.8856 19.9035 22.0654 19.6381 22.0654Z" fill="#17AC88"/>
<path d="M19.2914 26.4365C19.1424 26.4365 18.9934 26.3795 18.88 26.2661C18.6525 26.0385 18.6525 25.6708 18.88 25.4433L19.42 24.9027C19.3402 24.7363 19.2698 24.5659 19.2082 24.3919H18.4442C18.123 24.3919 17.8623 24.1318 17.8623 23.81C17.8623 23.4882 18.123 23.2281 18.4442 23.2281H19.6381C19.9035 23.2281 20.1351 23.4079 20.2014 23.6645C20.2968 24.0334 20.4429 24.3861 20.6366 24.7148C20.771 24.9435 20.7344 25.2344 20.547 25.4218L19.7027 26.2661C19.5893 26.3801 19.4403 26.4365 19.2914 26.4365Z" fill="#17AC88"/>
<path d="M22.9831 28.9305C22.6619 28.9305 22.4013 28.6704 22.4013 28.3486V27.584C22.2273 27.5229 22.0568 27.452 21.8898 27.3722L21.3498 27.9128C21.1223 28.1403 20.7546 28.1403 20.5271 27.9128C20.2996 27.6853 20.2996 27.3175 20.5271 27.09L21.3714 26.2458C21.5587 26.059 21.8491 26.02 22.0783 26.1561C22.4071 26.3499 22.7603 26.4965 23.1286 26.5908C23.3858 26.6571 23.565 26.8893 23.565 27.1546V28.3492C23.565 28.6698 23.3043 28.9305 22.9831 28.9305Z" fill="#17AC88"/>
<path d="M25.3074 28.9308C24.9863 28.9308 24.7256 28.6707 24.7256 28.3489V27.1544C24.7256 26.889 24.9054 26.6575 25.162 26.5905C25.5297 26.4963 25.8829 26.3497 26.2122 26.1559C26.4415 26.0203 26.7318 26.0587 26.9192 26.2455L27.7635 27.0898C27.991 27.3173 27.991 27.685 27.7635 27.9125C27.536 28.14 27.1682 28.14 26.9407 27.9125L26.4008 27.372C26.2338 27.4523 26.0633 27.5227 25.8893 27.5838V28.3478C25.8893 28.6701 25.6286 28.9308 25.3074 28.9308Z" fill="#17AC88"/>
<path d="M29.0012 26.4365C28.8522 26.4365 28.7033 26.3795 28.5898 26.2661L27.7455 25.4218C27.5582 25.2344 27.5209 24.9435 27.6559 24.7148C27.8497 24.3866 27.9957 24.0334 28.0912 23.6645C28.1575 23.4079 28.3891 23.2281 28.6544 23.2281H29.8484C30.1696 23.2281 30.4303 23.4882 30.4303 23.81C30.4303 24.1318 30.1696 24.3919 29.8484 24.3919H29.0844C29.0227 24.5659 28.9523 24.7363 28.8726 24.9027L29.4126 25.4433C29.6401 25.6708 29.6401 26.0385 29.4126 26.2661C29.2991 26.3801 29.1502 26.4365 29.0012 26.4365Z" fill="#17AC88"/>
<path d="M26.5072 19.218C26.406 19.218 26.3042 19.1918 26.2122 19.1371C25.8835 18.9434 25.5303 18.7967 25.162 18.7025C24.9048 18.6361 24.7256 18.4045 24.7256 18.1392V16.9447C24.7256 16.6229 24.9863 16.3628 25.3074 16.3628C25.6286 16.3628 25.8893 16.6229 25.8893 16.9447V17.7086C26.0633 17.7697 26.2338 17.8407 26.4008 17.9204L26.9407 17.3799C27.1682 17.1524 27.536 17.1524 27.7635 17.3799C27.991 17.6074 27.991 17.9751 27.7635 18.2026L26.9192 19.0469C26.8069 19.1598 26.658 19.218 26.5072 19.218Z" fill="#17AC88"/>
<path d="M29.8481 22.0654H28.6542C28.3888 22.0654 28.1572 21.8856 28.0909 21.629C27.9955 21.2601 27.8494 20.907 27.6557 20.5782C27.5213 20.3495 27.5579 20.0586 27.7453 19.8712L28.5896 19.027C28.8165 18.7994 29.1848 18.7994 29.4123 19.027C29.6398 19.2545 29.6398 19.6222 29.4123 19.8497L28.8724 20.3903C28.9521 20.5567 29.0225 20.7277 29.0842 20.9017H29.8481C30.1693 20.9017 30.43 21.1618 30.43 21.4836C30.43 21.8053 30.1699 22.0654 29.8481 22.0654Z" fill="#17AC88"/>
<path d="M19.2928 20.0206C19.1828 20.0206 19.0711 19.9892 18.9722 19.924C18.7045 19.7466 18.6306 19.3858 18.8081 19.1176C19.287 18.3937 19.8956 17.7845 20.6183 17.308C20.8877 17.1305 21.2478 17.2038 21.4247 17.4726C21.6016 17.7403 21.5283 18.1016 21.2601 18.2785C20.6689 18.669 20.1708 19.167 19.7792 19.7599C19.6669 19.9293 19.4819 20.0206 19.2928 20.0206Z" fill="#17AC88"/>
<path d="M25.3095 17.5269C25.2711 17.5269 25.2321 17.5229 25.1931 17.5147C24.4978 17.3739 23.7931 17.3739 23.0972 17.5147C22.7824 17.5781 22.4752 17.3757 22.4112 17.0609C22.3472 16.7461 22.5503 16.4389 22.8656 16.3748C23.7146 16.202 24.5757 16.202 25.4247 16.3748C25.74 16.4383 25.9431 16.7461 25.8791 17.0609C25.8232 17.3367 25.5806 17.5269 25.3095 17.5269Z" fill="#17AC88"/>
<path d="M29.0017 20.0203C28.8126 20.0203 28.6275 19.929 28.5158 19.7596C28.1242 19.1667 27.6256 18.6687 27.035 18.2782C26.7667 18.1013 26.6934 17.74 26.8703 17.4723C27.0472 17.2047 27.4085 17.1302 27.6768 17.3077C28.3994 17.7842 29.0081 18.3934 29.4869 19.1173C29.6644 19.3855 29.5905 19.7463 29.3229 19.9237C29.2234 19.9889 29.1116 20.0203 29.0017 20.0203Z" fill="#17AC88"/>
<path d="M29.8453 24.3923C29.8069 24.3923 29.7679 24.3882 29.7283 24.3801C29.4135 24.3161 29.2105 24.0083 29.2745 23.6935C29.4165 22.9987 29.4165 22.2935 29.2745 21.5988C29.2105 21.284 29.4135 20.9768 29.7283 20.9122C30.0425 20.847 30.3503 21.0507 30.4149 21.3654C30.5883 22.2144 30.5883 23.0755 30.4149 23.9256C30.3591 24.2026 30.1164 24.3923 29.8453 24.3923Z" fill="#17AC88"/>
<path d="M27.3562 28.0813C27.1671 28.0813 26.982 27.9899 26.8703 27.82C26.6934 27.5524 26.7667 27.191 27.035 27.0142C27.6267 26.6231 28.1248 26.1251 28.5158 25.5333C28.6933 25.2645 29.0535 25.1912 29.3223 25.3686C29.5905 25.5455 29.6638 25.9069 29.4869 26.1745C29.0087 26.8984 28.3994 27.5076 27.6768 27.9847C27.5773 28.0499 27.4661 28.0813 27.3562 28.0813Z" fill="#17AC88"/>
<path d="M24.1452 29.0474C23.7175 29.0474 23.2898 29.0044 22.8651 28.9171C22.5503 28.8531 22.3472 28.5453 22.4112 28.2305C22.4752 27.9157 22.7818 27.7127 23.0978 27.7772C23.7925 27.9192 24.4972 27.9192 25.1925 27.7772C25.5055 27.7132 25.8151 27.9157 25.8791 28.2305C25.9431 28.5453 25.74 28.8525 25.4253 28.9171C25.0005 29.0038 24.5722 29.0474 24.1452 29.0474Z" fill="#17AC88"/>
<path d="M18.4468 24.3932C18.1762 24.3932 17.9336 24.2036 17.8771 23.9278C17.7037 23.0777 17.7037 22.2165 17.8771 21.3676C17.9417 21.0528 18.2489 20.8485 18.5637 20.9143C18.8785 20.9783 19.0816 21.2861 19.0176 21.6009C18.8756 22.2951 18.8756 23.0003 19.0176 23.6956C19.0816 24.0104 18.8785 24.3176 18.5637 24.3822C18.5241 24.3892 18.4852 24.3932 18.4468 24.3932Z" fill="#17AC88"/>
<path d="M20.938 28.083C20.828 28.083 20.7169 28.0516 20.618 27.9864C19.8947 27.5093 19.2855 26.9001 18.8078 26.1762C18.6309 25.9086 18.7042 25.5472 18.9725 25.3703C19.2419 25.1935 19.6021 25.2662 19.7789 25.535C20.17 26.1268 20.668 26.6248 21.2598 27.0158C21.528 27.1927 21.6013 27.5541 21.4244 27.8217C21.3122 27.9905 21.1271 28.083 20.938 28.083Z" fill="#17AC88"/>
</svg>
