<svg width="12" height="12" viewBox="0 0 12 12" fill="none" xmlns="http://www.w3.org/2000/svg">
<path fill-rule="evenodd" clip-rule="evenodd" d="M0.166504 5.99959C0.166504 2.78018 2.77984 0.16626 5.99984 0.16626C9.22567 0.16626 11.8332 2.78018 11.8332 5.99959C11.8332 9.22018 9.22567 11.8329 5.99984 11.8329C2.77984 11.8329 0.166504 9.22018 0.166504 5.99959ZM5.4865 3.78876C5.4865 3.50934 5.71984 3.27543 5.99984 3.27543C6.27984 3.27543 6.50734 3.50934 6.50734 3.78876V6.36709C6.50734 6.64768 6.27984 6.87459 5.99984 6.87459C5.71984 6.87459 5.4865 6.64768 5.4865 6.36709V3.78876ZM6.00567 8.73018C5.71984 8.73018 5.49234 8.49684 5.49234 8.21684C5.49234 7.93684 5.71984 7.70934 5.99984 7.70934C6.28567 7.70934 6.51317 7.93684 6.51317 8.21684C6.51317 8.49684 6.28567 8.73018 6.00567 8.73018Z" fill="#D83939"/>
</svg>
