<svg width="24" height="25" viewBox="0 0 24 25" fill="none" xmlns="http://www.w3.org/2000/svg">
<rect y="24.5" width="24" height="24" rx="12" transform="rotate(-90 0 24.5)" fill="#7E7E7E" fill-opacity="0.2"/>
<g clip-path="url(#clip0_3084_725)">
<path d="M12.5001 13.7083C12.8913 13.7083 13.2084 13.3912 13.2084 13C13.2084 12.6088 12.8913 12.2916 12.5001 12.2916C12.1089 12.2916 11.7917 12.6088 11.7917 13C11.7917 13.3912 12.1089 13.7083 12.5001 13.7083Z" stroke="#7E7E7E" stroke-width="2" stroke-linecap="round" stroke-linejoin="round"/>
<path d="M12.5001 8.75004C12.8913 8.75004 13.2084 8.43291 13.2084 8.04171C13.2084 7.65051 12.8913 7.33337 12.5001 7.33337C12.1089 7.33337 11.7917 7.65051 11.7917 8.04171C11.7917 8.43291 12.1089 8.75004 12.5001 8.75004Z" stroke="#7E7E7E" stroke-width="2" stroke-linecap="round" stroke-linejoin="round"/>
<path d="M12.5001 18.6667C12.8913 18.6667 13.2084 18.3495 13.2084 17.9583C13.2084 17.5671 12.8913 17.25 12.5001 17.25C12.1089 17.25 11.7917 17.5671 11.7917 17.9583C11.7917 18.3495 12.1089 18.6667 12.5001 18.6667Z" stroke="#7E7E7E" stroke-width="2" stroke-linecap="round" stroke-linejoin="round"/>
</g>
<defs>
<clipPath id="clip0_3084_725">
<rect width="16" height="16" fill="white" transform="translate(4 4.5)"/>
</clipPath>
</defs>
</svg>
