<svg width="32" height="33" viewBox="0 0 32 33" fill="none" xmlns="http://www.w3.org/2000/svg">
<path d="M26.6665 7.83333C24.0932 7.83333 21.9998 5.74 21.9998 3.16667C21.9998 2.8 21.6998 2.5 21.3332 2.5H10.6665C10.2998 2.5 9.99984 2.8 9.99984 3.16667C9.99984 5.74 7.9065 7.83333 5.33317 7.83333C4.9665 7.83333 4.6665 8.13333 4.6665 8.5V19.1667C4.6665 25.42 15.2732 30.24 15.7265 30.44C15.8132 30.48 15.9065 30.5 15.9998 30.5C16.0932 30.5 16.1865 30.48 16.2732 30.44C16.7265 30.24 27.3332 25.42 27.3332 19.1667V8.5C27.3332 8.13333 27.0332 7.83333 26.6665 7.83333ZM15.9998 29.1C15.1132 28.6733 12.2465 27.2267 9.8065 25.2133C11.1398 23.08 13.4598 21.7667 15.9998 21.7667C17.9598 21.7667 19.8065 22.5267 21.1865 23.9133C21.5732 24.3 21.8998 24.7467 22.1932 25.2133C19.7532 27.22 16.8865 28.6733 15.9998 29.1ZM25.9998 19.1667C25.9998 21.02 24.7998 22.78 23.2198 24.3C22.8998 23.82 22.5398 23.3733 22.1332 22.9667C20.4998 21.3333 18.3198 20.4333 15.9998 20.4333C13.0732 20.4333 10.3798 21.9 8.7865 24.3133C7.2065 22.7867 5.99984 21.02 5.99984 19.1667V9.12667C8.77984 8.82 10.9865 6.60667 11.2932 3.83333H20.6998C21.0065 6.61333 23.2198 8.82 25.9932 9.12667V19.1667H25.9998Z" fill="#17AC88"/>
<path d="M22.6663 13.76C22.6663 10.0867 19.673 7.09332 15.9997 7.09332C12.3263 7.09332 9.33301 10.0867 9.33301 13.76C9.33301 17.4333 12.3263 20.4267 15.9997 20.4267C19.673 20.4267 22.6663 17.4333 22.6663 13.76ZM15.9997 19.0933C13.0597 19.0933 10.6663 16.7 10.6663 13.76C10.6663 10.82 13.0597 8.42666 15.9997 8.42666C18.9397 8.42666 21.333 10.82 21.333 13.76C21.333 16.7 18.9397 19.0933 15.9997 19.0933Z" fill="#17AC88"/>
</svg>
