<svg width="97" height="96" viewBox="0 0 97 96" fill="none" xmlns="http://www.w3.org/2000/svg">
<rect width="87" height="87" rx="13.05" fill="#F4F4F4"/>
<rect x="0.54375" y="0.54375" width="85.9125" height="85.9125" rx="12.5063" stroke="#7E7E7E" stroke-opacity="0.5" stroke-width="1.0875" stroke-dasharray="5.44 5.44"/>
<g clip-path="url(#clip0_2059_25726)">
<path d="M56.4547 26.1016H30.5484C28.0964 26.1016 26.1016 28.0964 26.1016 30.5485V56.4547C26.1016 58.9067 28.0964 60.9016 30.5484 60.9016H56.4547C58.9067 60.9016 60.9016 58.9067 60.9016 56.4546V30.5485C60.9016 28.0964 58.9067 26.1016 56.4547 26.1016ZM58.8518 56.4547C58.8518 57.7765 57.7764 58.8518 56.4547 58.8518H30.5484C29.2266 58.8518 28.1513 57.7764 28.1513 56.4547V52.7159L34.8975 46.9759C35.1437 46.7664 35.5029 46.7645 35.7514 46.9708L39.9772 50.4799C40.3847 50.8182 40.9828 50.7905 41.3573 50.4156L51.3982 40.3594C51.5797 40.1776 51.7913 40.1599 51.9018 40.1655C52.0119 40.1712 52.2209 40.2104 52.3828 40.4099L58.8518 48.3752L58.8518 56.4547ZM58.8518 45.1236L53.9739 39.1175C53.4902 38.5218 52.7732 38.1577 52.0068 38.1183C51.2409 38.0796 50.4899 38.3679 49.9477 38.911L40.5675 48.3057L37.061 45.3939C36.0442 44.5496 34.5758 44.5584 33.5692 45.4149L28.1513 50.0247V30.5485C28.1513 29.2267 29.2266 28.1514 30.5484 28.1514H56.4547C57.7765 28.1514 58.8518 29.2267 58.8518 30.5485V45.1236Z" fill="#7E7E7E"/>
<path d="M37.0594 30.3828C34.3342 30.3828 32.1172 32.6 32.1172 35.325C32.1172 38.0502 34.3343 40.2672 37.0594 40.2672C39.7845 40.2672 42.0016 38.0502 42.0016 35.325C42.0016 32.5999 39.7846 30.3828 37.0594 30.3828ZM37.0594 38.2175C35.4644 38.2175 34.1669 36.9199 34.1669 35.325C34.1669 33.7301 35.4644 32.4325 37.0594 32.4325C38.6544 32.4325 39.9519 33.7301 39.9519 35.325C39.9519 36.9199 38.6544 38.2175 37.0594 38.2175Z" fill="#7E7E7E"/>
</g>
<rect x="72" y="71" width="24" height="24" rx="12" fill="#F4F4F4"/>
<rect x="71.5" y="70.5" width="25" height="25" rx="12.5" stroke="#7E7E7E" stroke-opacity="0.5"/>
<path d="M84 76V90" stroke="#7E7E7E" stroke-width="1.5" stroke-linecap="round" stroke-linejoin="round"/>
<path d="M77 83H91" stroke="#7E7E7E" stroke-width="1.5" stroke-linecap="round" stroke-linejoin="round"/>
<defs>
<clipPath id="clip0_2059_25726">
<rect x="26.1016" y="26.1016" width="34.8" height="34.8" fill="white"/>
</clipPath>
</defs>
</svg>
