<svg width="168" height="109" viewBox="0 0 168 109" fill="none" xmlns="http://www.w3.org/2000/svg">
<path d="M155.09 107.866H15.4833C11.9214 107.866 8.76448 104.952 8.46765 101.389L0.605439 6.88207C0.309287 3.32013 2.98074 0.405273 6.54334 0.405273H146.15C149.712 0.405273 152.869 3.31946 153.165 6.88207L161.028 101.389C161.324 104.951 158.652 107.866 155.09 107.866Z" fill="white"/>
<path d="M155.09 108.136H15.4831C11.7752 108.136 8.50735 105.119 8.19903 101.412L0.336814 6.9053C0.186033 5.10202 0.75467 3.40152 1.9359 2.11752C3.11171 0.839609 4.74799 0.135742 6.54315 0.135742H146.15C149.858 0.135742 153.125 3.1527 153.434 6.86L161.297 101.366C161.447 103.169 160.879 104.869 159.697 106.153C158.521 107.431 156.885 108.136 155.09 108.136ZM6.54315 0.675979C4.90079 0.675979 3.40584 1.31764 2.33347 2.48332C1.25502 3.6544 0.737091 5.20886 0.874348 6.86068L8.73656 101.367C9.02257 104.802 12.049 107.596 15.4838 107.596H155.09C156.733 107.596 158.228 106.954 159.301 105.788C160.379 104.616 160.897 103.063 160.76 101.411L152.897 6.9053C152.611 3.47049 149.585 0.675979 146.151 0.675979H6.54315Z" fill="#7E7E7E"/>
<path d="M146.15 0.40625H6.54334C2.98141 0.40625 0.309282 3.32044 0.605434 6.88305H153.165C152.869 3.32044 149.712 0.40625 146.15 0.40625Z" fill="#1C1C1C"/>
<path d="M9.81095 3.64398C9.87519 4.41546 9.30181 5.0409 8.53033 5.0409C7.75885 5.0409 7.08135 4.41546 7.01712 3.64398C6.95288 2.8725 7.52626 2.24707 8.29774 2.24707C9.06922 2.24707 9.74672 2.8725 9.81095 3.64398Z" fill="#DA7A7A"/>
<path d="M15.4905 3.64398C15.5547 4.41546 14.9813 5.0409 14.2098 5.0409C13.4383 5.0409 12.7615 4.41546 12.6973 3.64398C12.6331 2.8725 13.2064 2.24707 13.9779 2.24707C14.7494 2.24707 15.4262 2.8725 15.4905 3.64398Z" fill="#E5D540"/>
<path d="M21.1701 3.64398C21.2344 4.41546 20.661 5.0409 19.8895 5.0409C19.118 5.0409 18.4405 4.41546 18.377 3.64398C18.3127 2.8725 18.8861 2.24707 19.6576 2.24707C20.4291 2.24707 21.1059 2.8725 21.1701 3.64398Z" fill="#53BD5E"/>
<path opacity="0.1" d="M106.656 30.8095L70.2739 74.6123C65.2832 80.6212 68.4449 89.7809 76.0793 91.4321L135.088 104.194C143.237 105.957 150.047 97.8994 146.95 90.1582L124.323 33.5932C121.393 26.2686 111.697 24.7411 106.656 30.8095Z" fill="#7E7E7E"/>
<path opacity="0.1" d="M25.6794 36.9502L13.0078 71.0725C11.3168 75.6257 14.9781 80.3776 19.8118 79.9037L56.8166 76.2748C62.0053 75.7656 64.5652 69.7081 61.3136 65.6323L36.9812 35.1381C33.7912 31.1414 27.4597 32.1563 25.6794 36.9502Z" fill="#7E7E7E"/>
<path d="M119.205 19.7809L85.1946 69.1645C80.5616 75.8915 84.6658 85.1385 92.762 86.2156L155.282 94.5362C163.959 95.6911 170.412 86.6929 166.534 78.8442L138.025 21.14C134.327 13.6537 123.942 12.9032 119.205 19.7809Z" fill="#17AC88"/>
<path d="M94.2464 81.7892C91.9725 81.487 89.9961 80.0529 88.9596 77.9548C87.9231 75.8561 88.0421 73.5315 89.2787 71.7349L123.375 22.2269C124.612 20.4318 126.708 19.5399 128.981 19.8422C131.255 20.1451 133.232 21.5785 134.268 23.6766L162.849 81.5262C163.886 83.625 163.766 85.9496 162.529 87.7461C161.292 89.5412 159.196 90.4331 156.923 90.1308L94.2464 81.7892Z" fill="white"/>
<path d="M126.078 37.3417L130.06 37.8718C132.62 38.2125 134.591 40.5419 134.461 43.074L134.194 48.2682C134.184 48.4589 134.162 48.6475 134.129 48.8328L131.296 64.4855C130.888 66.7411 128.827 68.2003 126.489 67.8892C124.145 67.5775 122.259 65.5856 122.093 63.2475L120.944 47.0714C120.931 46.8841 120.929 46.6968 120.939 46.5109L121.206 41.3106C121.336 38.7778 123.518 37.0009 126.078 37.3417ZM125.76 72.2037L126.846 72.3484C129.137 72.6534 130.899 74.7366 130.783 77.0017C130.666 79.2667 128.715 80.8557 126.424 80.5514L125.338 80.4067C123.048 80.1018 121.286 78.0186 121.402 75.7535C121.519 73.4884 123.47 71.8988 125.76 72.2037Z" fill="#17AC88"/>
<path d="M38.7586 27.3286L29.4204 62.741C28.1837 67.4301 32.2764 71.798 37.0358 70.869L73.2583 63.8012C78.3483 62.808 80.3375 56.5881 76.7688 52.8253L49.8853 24.4807C46.3409 20.7443 40.0717 22.3488 38.7586 27.3286Z" fill="#17AC88" fill-opacity="0.5"/>
<path d="M36.9667 68.001C35.6496 68.2579 34.279 67.7961 33.302 66.7657C32.3243 65.7346 31.943 64.3505 32.2831 63.0624L41.645 27.5608C41.9844 26.2734 42.9736 25.3511 44.2914 25.0942C45.6085 24.8372 46.9791 25.2991 47.9561 26.3295L74.9079 54.7459C75.8856 55.777 76.267 57.161 75.9269 58.4491C75.5875 59.7365 74.5983 60.6588 73.2811 60.9157L36.9667 68.001Z" fill="white"/>
<path d="M46.0475 35.8961L48.3545 35.4458C49.838 35.1565 51.3776 36.1443 51.7921 37.6514L52.6433 40.7434C52.6744 40.857 52.6988 40.9713 52.7157 41.0862L54.1565 50.793C54.3641 52.1919 53.5034 53.4394 52.1491 53.7038C50.7914 53.9688 49.364 53.1622 48.8224 51.8255L45.0752 42.5724C45.032 42.4649 44.9948 42.3561 44.9643 42.2452L44.1124 39.1491C43.6979 37.6426 44.5641 36.1855 46.0475 35.8961ZM52.5757 56.3712L53.2052 56.2481C54.5325 55.9892 55.9091 56.8729 56.2803 58.2211C56.6515 59.57 55.8766 60.873 54.5494 61.1319L53.9206 61.255C52.5933 61.5139 51.2167 60.6302 50.8455 59.282C50.4736 57.9331 51.2484 56.6302 52.5757 56.3712Z" fill="#17AC88" fill-opacity="0.5"/>
</svg>
