<svg width="20" height="21" viewBox="0 0 20 21" fill="none" xmlns="http://www.w3.org/2000/svg">
<g clip-path="url(#clip0_245_5822)">
<g clip-path="url(#clip1_245_5822)">
<path d="M15.0781 9.89941C15.5096 9.89941 15.8594 9.54964 15.8594 9.11816C15.8594 8.68669 15.5096 8.33691 15.0781 8.33691C14.6467 8.33691 14.2969 8.68669 14.2969 9.11816C14.2969 9.54964 14.6467 9.89941 15.0781 9.89941Z" fill="#7E7E7E"/>
<path d="M16.875 2.47754H15.8594V1.69629C15.8594 1.2648 15.5096 0.915039 15.0781 0.915039C14.6466 0.915039 14.2969 1.2648 14.2969 1.69629V2.47754H10.7422V1.69629C10.7422 1.2648 10.3924 0.915039 9.96094 0.915039C9.52945 0.915039 9.17969 1.2648 9.17969 1.69629V2.47754H5.66406V1.69629C5.66406 1.2648 5.3143 0.915039 4.88281 0.915039C4.45133 0.915039 4.10156 1.2648 4.10156 1.69629V2.47754H3.125C1.40188 2.47754 0 3.87941 0 5.60254V17.79C0 19.5132 1.40188 20.915 3.125 20.915H9.10156C9.53305 20.915 9.88281 20.5653 9.88281 20.1338C9.88281 19.7023 9.53305 19.3525 9.10156 19.3525H3.125C2.26344 19.3525 1.5625 18.6516 1.5625 17.79V5.60254C1.5625 4.74098 2.26344 4.04004 3.125 4.04004H4.10156V4.82129C4.10156 5.25277 4.45133 5.60254 4.88281 5.60254C5.3143 5.60254 5.66406 5.25277 5.66406 4.82129V4.04004H9.17969V4.82129C9.17969 5.25277 9.52945 5.60254 9.96094 5.60254C10.3924 5.60254 10.7422 5.25277 10.7422 4.82129V4.04004H14.2969V4.82129C14.2969 5.25277 14.6466 5.60254 15.0781 5.60254C15.5096 5.60254 15.8594 5.25277 15.8594 4.82129V4.04004H16.875C17.7366 4.04004 18.4375 4.74098 18.4375 5.60254V10.0557C18.4375 10.4871 18.7873 10.8369 19.2188 10.8369C19.6502 10.8369 20 10.4871 20 10.0557V5.60254C20 3.87941 18.5981 2.47754 16.875 2.47754Z" fill="#7E7E7E"/>
<path d="M15.2734 11.4619C12.6672 11.4619 10.5469 13.5822 10.5469 16.1885C10.5469 18.7947 12.6672 20.915 15.2734 20.915C17.8797 20.915 20 18.7947 20 16.1885C20 13.5822 17.8797 11.4619 15.2734 11.4619ZM15.2734 19.3525C13.5288 19.3525 12.1094 17.9332 12.1094 16.1885C12.1094 14.4438 13.5288 13.0244 15.2734 13.0244C17.0181 13.0244 18.4375 14.4438 18.4375 16.1885C18.4375 17.9332 17.0181 19.3525 15.2734 19.3525Z" fill="#7E7E7E"/>
<path d="M16.4062 15.4072H16.0547V14.5869C16.0547 14.1554 15.7049 13.8057 15.2734 13.8057C14.842 13.8057 14.4922 14.1554 14.4922 14.5869V16.1885C14.4922 16.62 14.842 16.9697 15.2734 16.9697H16.4062C16.8377 16.9697 17.1875 16.62 17.1875 16.1885C17.1875 15.757 16.8377 15.4072 16.4062 15.4072Z" fill="#7E7E7E"/>
<path d="M11.6797 9.89941C12.1112 9.89941 12.4609 9.54964 12.4609 9.11816C12.4609 8.68669 12.1112 8.33691 11.6797 8.33691C11.2482 8.33691 10.8984 8.68669 10.8984 9.11816C10.8984 9.54964 11.2482 9.89941 11.6797 9.89941Z" fill="#7E7E7E"/>
<path d="M8.28125 13.2979C8.71272 13.2979 9.0625 12.9481 9.0625 12.5166C9.0625 12.0851 8.71272 11.7354 8.28125 11.7354C7.84978 11.7354 7.5 12.0851 7.5 12.5166C7.5 12.9481 7.84978 13.2979 8.28125 13.2979Z" fill="#7E7E7E"/>
<path d="M4.88281 9.89941C5.31428 9.89941 5.66406 9.54964 5.66406 9.11816C5.66406 8.68669 5.31428 8.33691 4.88281 8.33691C4.45134 8.33691 4.10156 8.68669 4.10156 9.11816C4.10156 9.54964 4.45134 9.89941 4.88281 9.89941Z" fill="#7E7E7E"/>
<path d="M4.88281 13.2979C5.31428 13.2979 5.66406 12.9481 5.66406 12.5166C5.66406 12.0851 5.31428 11.7354 4.88281 11.7354C4.45134 11.7354 4.10156 12.0851 4.10156 12.5166C4.10156 12.9481 4.45134 13.2979 4.88281 13.2979Z" fill="#7E7E7E"/>
<path d="M4.88281 16.6963C5.31428 16.6963 5.66406 16.3465 5.66406 15.915C5.66406 15.4836 5.31428 15.1338 4.88281 15.1338C4.45134 15.1338 4.10156 15.4836 4.10156 15.915C4.10156 16.3465 4.45134 16.6963 4.88281 16.6963Z" fill="#7E7E7E"/>
<path d="M8.28125 16.6963C8.71272 16.6963 9.0625 16.3465 9.0625 15.915C9.0625 15.4836 8.71272 15.1338 8.28125 15.1338C7.84978 15.1338 7.5 15.4836 7.5 15.915C7.5 16.3465 7.84978 16.6963 8.28125 16.6963Z" fill="#7E7E7E"/>
<path d="M8.28125 9.89941C8.71272 9.89941 9.0625 9.54964 9.0625 9.11816C9.0625 8.68669 8.71272 8.33691 8.28125 8.33691C7.84978 8.33691 7.5 8.68669 7.5 9.11816C7.5 9.54964 7.84978 9.89941 8.28125 9.89941Z" fill="#7E7E7E"/>
</g>
</g>
<defs>
<clipPath id="clip0_245_5822">
<rect width="20" height="20" fill="white" transform="translate(0 0.915039)"/>
</clipPath>
<clipPath id="clip1_245_5822">
<rect width="20" height="20" fill="white" transform="translate(0 0.915039)"/>
</clipPath>
</defs>
</svg>
