<svg width="16" height="16" viewBox="0 0 16 16" fill="none" xmlns="http://www.w3.org/2000/svg">
<path d="M12.1667 1.19735C12.1667 0.73711 12.5398 0.364014 13 0.364014C13.4602 0.364014 13.8333 0.73711 13.8333 1.19735V3.86401C13.8333 4.32425 13.4602 4.69735 13 4.69735H10.407C9.9468 4.69735 9.5737 4.32425 9.5737 3.86401C9.5737 3.40378 9.9468 3.03068 10.407 3.03068H10.9779C10.0734 2.3979 8.98414 2.03068 7.81455 2.03068C4.71732 2.03068 2.16667 4.62003 2.16667 7.86401C2.16667 8.32425 1.79357 8.69735 1.33333 8.69735C0.873096 8.69735 0.5 8.32425 0.5 7.86401C0.5 3.7442 3.75283 0.364014 7.81455 0.364014C9.44769 0.364014 10.9527 0.912779 12.1667 1.83557V1.19735Z" fill="#17AC88"/>
<path d="M3.83333 14.5307C3.83333 14.9909 3.46024 15.364 3 15.364C2.53976 15.364 2.16667 14.9909 2.16667 14.5307V11.864C2.16667 11.4038 2.53976 11.0307 3 11.0307H5.59296C6.0532 11.0307 6.42629 11.4038 6.42629 11.864C6.42629 12.3243 6.0532 12.6973 5.59296 12.6973H5.02212C5.92658 13.3301 7.01586 13.6973 8.18545 13.6973C11.2827 13.6973 13.8333 11.108 13.8333 7.86401C13.8333 7.40378 14.2064 7.03068 14.6667 7.03068C15.1269 7.03068 15.5 7.40378 15.5 7.86401C15.5 11.9838 12.2472 15.364 8.18545 15.364C6.55231 15.364 5.04728 14.8152 3.83333 13.8925V14.5307Z" fill="#17AC88"/>
</svg>
