<svg width="38" height="38" viewBox="0 0 38 38" fill="none" xmlns="http://www.w3.org/2000/svg">
<circle cx="19.0278" cy="18.9721" r="18.5278" fill="#D9D9D9"/>
<path d="M22.5909 11.6267C22.7763 11.428 22.9964 11.2704 23.2387 11.1629C23.481 11.0553 23.7407 11 24.003 11C24.2652 11 24.5249 11.0553 24.7672 11.1629C25.0095 11.2704 25.2296 11.428 25.4151 11.6267C25.6005 11.8254 25.7476 12.0613 25.848 12.3209C25.9483 12.5805 26 12.8587 26 13.1397C26 13.4207 25.9483 13.6989 25.848 13.9585C25.7476 14.2181 25.6005 14.454 25.4151 14.6527L15.8833 24.8653L12 26L13.0591 21.8393L22.5909 11.6267Z" stroke="#7E7E7E" stroke-width="1.91667" stroke-linecap="round" stroke-linejoin="round"/>
</svg>
