<svg width="25" height="25" viewBox="0 0 25 25" fill="none" xmlns="http://www.w3.org/2000/svg">
<path d="M16.8827 8.77271H15.7835C15.5445 8.77271 15.3171 8.88755 15.1765 9.08442L11.4921 14.1938L9.82337 11.8782C9.68274 11.6836 9.45774 11.5665 9.21634 11.5665H8.11712C7.96477 11.5665 7.87571 11.7399 7.96477 11.8641L10.8851 15.9141C10.9541 16.0104 11.045 16.0889 11.1504 16.143C11.2557 16.1971 11.3725 16.2253 11.4909 16.2253C11.6094 16.2253 11.7261 16.1971 11.8315 16.143C11.9369 16.0889 12.0278 16.0104 12.0968 15.9141L17.0327 9.07036C17.1242 8.94614 17.0351 8.77271 16.8827 8.77271Z" fill="#52C41A"/>
<path d="M12.5 2C6.70156 2 2 6.70156 2 12.5C2 18.2984 6.70156 23 12.5 23C18.2984 23 23 18.2984 23 12.5C23 6.70156 18.2984 2 12.5 2ZM12.5 21.2188C7.68594 21.2188 3.78125 17.3141 3.78125 12.5C3.78125 7.68594 7.68594 3.78125 12.5 3.78125C17.3141 3.78125 21.2188 7.68594 21.2188 12.5C21.2188 17.3141 17.3141 21.2188 12.5 21.2188Z" fill="#52C41A"/>
</svg>
