<svg width="26" height="26" viewBox="0 0 26 26" fill="none" xmlns="http://www.w3.org/2000/svg">
<path fill-rule="evenodd" clip-rule="evenodd" d="M13.0001 23.3996C18.7439 23.3996 23.4001 18.7434 23.4001 12.9996C23.4001 7.25585 18.7439 2.59961 13.0001 2.59961C7.25634 2.59961 2.6001 7.25585 2.6001 12.9996C2.6001 18.7434 7.25634 23.3996 13.0001 23.3996ZM11.3193 9.48037C10.8117 8.97269 9.98854 8.97269 9.48086 9.48037C8.97318 9.98805 8.97318 10.8112 9.48086 11.3188L11.1616 12.9996L9.48086 14.6804C8.97318 15.1881 8.97318 16.0112 9.48086 16.5188C9.98854 17.0265 10.8117 17.0265 11.3193 16.5188L13.0001 14.8381L14.6809 16.5188C15.1885 17.0265 16.0117 17.0265 16.5193 16.5188C17.027 16.0112 17.027 15.1881 16.5193 14.6804L14.8386 12.9996L16.5193 11.3188C17.027 10.8112 17.027 9.98805 16.5193 9.48037C16.0117 8.97269 15.1885 8.97269 14.6809 9.48037L13.0001 11.1611L11.3193 9.48037Z" fill="#E60000"/>
</svg>
