<svg width="6" height="9" viewBox="0 0 6 9" fill="none" xmlns="http://www.w3.org/2000/svg">
<path d="M3.216 9L0.948 5.04V4.512H1.212C1.636 4.512 1.992 4.472 2.28 4.392C2.576 4.312 2.808 4.18 2.976 3.996C3.144 3.812 3.244 3.56 3.276 3.24H0.948V2.472H3.264C3.208 2.176 3.096 1.936 2.928 1.752C2.76 1.56 2.532 1.42 2.244 1.332C1.964 1.244 1.62 1.2 1.212 1.2H0.948V0.431999H5.916V1.2H3.648C3.832 1.352 3.984 1.532 4.104 1.74C4.224 1.948 4.3 2.192 4.332 2.472H5.916V3.24H4.356C4.3 3.824 4.076 4.28 3.684 4.608C3.3 4.928 2.788 5.132 2.148 5.22L4.44 9H3.216Z" fill=""/>
</svg>
