<svg width="16" height="16" viewBox="0 0 16 16" fill="none" xmlns="http://www.w3.org/2000/svg">
<path fill-rule="evenodd" clip-rule="evenodd" d="M13.8712 5.08225L13.4562 4.36219C13.1052 3.7529 12.3272 3.54272 11.7171 3.89232V3.89232C11.4267 4.0634 11.0801 4.11194 10.7539 4.02723C10.4276 3.94252 10.1485 3.73152 9.97797 3.44075C9.86829 3.25594 9.80934 3.04543 9.80711 2.83053V2.83053C9.81701 2.48598 9.68702 2.15211 9.44676 1.90495C9.20651 1.6578 8.87644 1.51841 8.53175 1.51855H7.69575C7.35806 1.51855 7.03429 1.65311 6.79608 1.89247C6.55787 2.13182 6.42486 2.45623 6.42649 2.79392V2.79392C6.41648 3.49112 5.8484 4.05104 5.15113 4.05097C4.93622 4.04874 4.72572 3.9898 4.5409 3.88011V3.88011C3.93079 3.53051 3.15282 3.7407 2.80177 4.34998L2.35631 5.08225C2.00569 5.69077 2.21301 6.46824 2.82008 6.82138V6.82138C3.21468 7.0492 3.45777 7.47023 3.45777 7.92588C3.45777 8.38152 3.21468 8.80256 2.82008 9.03038V9.03038C2.21379 9.38113 2.00623 10.1567 2.35631 10.7634V10.7634L2.77736 11.4896C2.94185 11.7864 3.21782 12.0054 3.54421 12.0981C3.8706 12.1909 4.22051 12.1498 4.5165 11.9838V11.9838C4.80747 11.8141 5.15421 11.7675 5.47964 11.8546C5.80508 11.9417 6.08224 12.1552 6.24952 12.4476C6.35921 12.6324 6.41815 12.8429 6.42039 13.0578V13.0578C6.42039 13.7622 6.99138 14.3332 7.69575 14.3332H8.53175C9.23374 14.3332 9.80375 13.7659 9.80711 13.0639V13.0639C9.80548 12.7252 9.93932 12.3999 10.1789 12.1603C10.4184 11.9208 10.7437 11.7869 11.0825 11.7886C11.2969 11.7943 11.5065 11.853 11.6927 11.9594V11.9594C12.3012 12.3101 13.0787 12.1027 13.4318 11.4957V11.4957L13.8712 10.7634C14.0412 10.4715 14.0879 10.1238 14.0009 9.79742C13.9138 9.471 13.7002 9.19274 13.4074 9.02428V9.02428C13.1146 8.85581 12.901 8.57756 12.814 8.25113C12.7269 7.92471 12.7736 7.57705 12.9436 7.28515C13.0542 7.09206 13.2143 6.93197 13.4074 6.82138V6.82138C14.0108 6.46843 14.2177 5.6955 13.8712 5.08835V5.08835V5.08225Z" stroke="currentColor" stroke-width="1.2" stroke-linecap="round" stroke-linejoin="round"/>
<circle cx="8.11681" cy="7.92541" r="1.75744" stroke="currentColor" stroke-width="1.2" stroke-linecap="round" stroke-linejoin="round"/>
</svg>
