<svg width="17" height="18" viewBox="0 0 17 18" fill="none" xmlns="http://www.w3.org/2000/svg">
<path fill-rule="evenodd" clip-rule="evenodd" d="M15.459 5.35305L14.9404 4.45298C14.5015 3.69138 13.5291 3.42864 12.7664 3.86564V3.86564C12.4034 4.07949 11.9702 4.14017 11.5624 4.03428C11.1546 3.92839 10.8057 3.66464 10.5925 3.30118C10.4554 3.07016 10.3817 2.80704 10.3789 2.53841V2.53841C10.3913 2.10773 10.2288 1.69038 9.92851 1.38143C9.62819 1.07249 9.2156 0.89826 8.78475 0.898438H7.73974C7.31763 0.898433 6.91292 1.06664 6.61516 1.36583C6.3174 1.66502 6.15114 2.07053 6.15317 2.49264V2.49264C6.14066 3.36415 5.43056 4.06405 4.55896 4.06396C4.29033 4.06117 4.02721 3.98749 3.79619 3.85038V3.85038C3.03354 3.41339 2.06109 3.67612 1.62227 4.43772L1.06545 5.35305C0.627166 6.1137 0.886325 7.08555 1.64516 7.52697V7.52697C2.13841 7.81174 2.44227 8.33803 2.44227 8.90759C2.44227 9.47715 2.13841 10.0034 1.64516 10.2882V10.2882C0.887288 10.7267 0.627847 11.6961 1.06545 12.4545V12.4545L1.59176 13.3622C1.79736 13.7332 2.14233 14.007 2.55032 14.1229C2.95831 14.2389 3.39569 14.1875 3.76568 13.9801V13.9801C4.12939 13.7678 4.56282 13.7097 4.96961 13.8185C5.3764 13.9274 5.72285 14.1942 5.93196 14.5598C6.06907 14.7908 6.14275 15.0539 6.14554 15.3225V15.3225C6.14554 16.203 6.85929 16.9167 7.73974 16.9167H8.78475C9.66223 16.9168 10.3747 16.2076 10.3789 15.3302V15.3302C10.3769 14.9067 10.5442 14.5001 10.8436 14.2006C11.143 13.9012 11.5497 13.7339 11.9732 13.736C12.2411 13.7431 12.5032 13.8165 12.7359 13.9495V13.9495C13.4966 14.3878 14.4684 14.1287 14.9098 13.3698V13.3698L15.459 12.4545C15.6716 12.0896 15.73 11.655 15.6212 11.247C15.5124 10.839 15.2454 10.4912 14.8793 10.2806V10.2806C14.5133 10.07 14.2463 9.72219 14.1375 9.31416C14.0287 8.90613 14.087 8.47156 14.2996 8.10668C14.4379 7.86532 14.638 7.66521 14.8793 7.52697V7.52697C15.6336 7.08579 15.8922 6.11962 15.459 5.36068V5.36068V5.35305Z" stroke="#3E5468" stroke-width="1.2" stroke-linecap="round" stroke-linejoin="round"/>
<ellipse cx="8.26613" cy="8.90773" rx="2.1968" ry="2.1968" stroke="#3E5468" stroke-width="1.2" stroke-linecap="round" stroke-linejoin="round"/>
</svg>
