<svg width="28" height="29" viewBox="0 0 28 29" fill="none" xmlns="http://www.w3.org/2000/svg">
<g clip-path="url(#clip0_2059_26324)">
<path fill-rule="evenodd" clip-rule="evenodd" d="M3.32812 0.5C2.77584 0.5 2.32812 0.947715 2.32812 1.5V27.5C2.32812 28.0523 2.77584 28.5 3.32813 28.5H24.6615C25.2137 28.5 25.6615 28.0523 25.6615 27.5V5.16667L20.9948 0.5H3.32812Z" fill="white"/>
<path fill-rule="evenodd" clip-rule="evenodd" d="M20.9922 0.5V5.16667H25.6589L20.9922 0.5Z" fill="white"/>
<rect x="1.16406" y="12.5" width="25.6667" height="10" rx="1" fill="#1FB35B"/>
<path d="M11.0891 16.6449H10.0266C9.99633 16.4706 9.94046 16.3163 9.85902 16.1818C9.77758 16.0455 9.67625 15.9299 9.55504 15.8352C9.43383 15.7405 9.29557 15.6695 9.14027 15.6222C8.98686 15.5729 8.82114 15.5483 8.64311 15.5483C8.32682 15.5483 8.04652 15.6278 7.8022 15.7869C7.55788 15.9441 7.3666 16.1752 7.22834 16.4801C7.09008 16.7831 7.02095 17.1534 7.02095 17.5909C7.02095 18.036 7.09008 18.411 7.22834 18.7159C7.36849 19.0189 7.55978 19.2481 7.8022 19.4034C8.04652 19.5568 8.32588 19.6335 8.64027 19.6335C8.81451 19.6335 8.97739 19.6108 9.12891 19.5653C9.28232 19.518 9.41963 19.4489 9.54084 19.358C9.66394 19.267 9.76716 19.1553 9.8505 19.0227C9.93572 18.8902 9.99444 18.7386 10.0266 18.5682L11.0891 18.5739C11.0494 18.8504 10.9632 19.1098 10.8306 19.3523C10.6999 19.5947 10.5285 19.8087 10.3164 19.9943C10.1043 20.178 9.85618 20.322 9.57209 20.4261C9.288 20.5284 8.97266 20.5795 8.62607 20.5795C8.1147 20.5795 7.65826 20.4612 7.25675 20.2244C6.85523 19.9877 6.53894 19.6458 6.30788 19.1989C6.07682 18.7519 5.96129 18.2159 5.96129 17.5909C5.96129 16.964 6.07777 16.428 6.31072 15.983C6.54368 15.536 6.86091 15.1941 7.26243 14.9574C7.66394 14.7206 8.11849 14.6023 8.62607 14.6023C8.94993 14.6023 9.25107 14.6477 9.52947 14.7386C9.80788 14.8295 10.056 14.9631 10.2738 15.1392C10.4916 15.3134 10.6706 15.5275 10.8107 15.7812C10.9528 16.0331 11.0456 16.321 11.0891 16.6449ZM15.2163 16.2812C15.1897 16.0331 15.078 15.84 14.881 15.7017C14.686 15.5634 14.4322 15.4943 14.1197 15.4943C13.9 15.4943 13.7115 15.5275 13.5543 15.5938C13.3971 15.66 13.2769 15.75 13.1935 15.8636C13.1102 15.9773 13.0676 16.107 13.0657 16.2528C13.0657 16.3741 13.0932 16.4792 13.1481 16.5682C13.2049 16.6572 13.2816 16.733 13.3782 16.7955C13.4748 16.8561 13.5818 16.9072 13.6992 16.9489C13.8166 16.9905 13.935 17.0256 14.0543 17.054L14.5998 17.1903C14.8195 17.2415 15.0307 17.3106 15.2333 17.3977C15.4379 17.4848 15.6206 17.5947 15.7816 17.7273C15.9445 17.8598 16.0733 18.0199 16.168 18.2074C16.2627 18.3949 16.31 18.6146 16.31 18.8665C16.31 19.2074 16.2229 19.5076 16.0487 19.767C15.8744 20.0246 15.6225 20.2263 15.293 20.3722C14.9653 20.5161 14.5685 20.5881 14.1026 20.5881C13.65 20.5881 13.257 20.518 12.9237 20.3778C12.5922 20.2377 12.3327 20.0331 12.1452 19.7642C11.9596 19.4953 11.8593 19.1676 11.8441 18.7812H12.881C12.8962 18.9839 12.9587 19.1525 13.0685 19.2869C13.1784 19.4214 13.3214 19.5218 13.4975 19.5881C13.6755 19.6544 13.8744 19.6875 14.0941 19.6875C14.3233 19.6875 14.524 19.6534 14.6964 19.5852C14.8706 19.5152 15.007 19.4186 15.1055 19.2955C15.204 19.1705 15.2541 19.0246 15.256 18.858C15.2541 18.7064 15.2096 18.5814 15.1225 18.483C15.0354 18.3826 14.9132 18.2992 14.756 18.233C14.6007 18.1648 14.4189 18.1042 14.2106 18.0511L13.5487 17.8807C13.0695 17.7576 12.6907 17.571 12.4123 17.321C12.1358 17.0691 11.9975 16.7348 11.9975 16.3182C11.9975 15.9754 12.0903 15.6752 12.2759 15.4176C12.4634 15.16 12.7182 14.9602 13.0401 14.8182C13.3621 14.6742 13.7267 14.6023 14.1339 14.6023C14.5468 14.6023 14.9085 14.6742 15.2191 14.8182C15.5316 14.9602 15.7769 15.1581 15.9549 15.4119C16.1329 15.6638 16.2248 15.9536 16.2305 16.2812H15.2163ZM18.0281 14.6818L19.5423 19.2614H19.6019L21.1133 14.6818H22.2724L20.2212 20.5H18.9201L16.8718 14.6818H18.0281Z" fill="white"/>
</g>
<defs>
<clipPath id="clip0_2059_26324">
<rect width="28" height="28" fill="white" transform="translate(0 0.5)"/>
</clipPath>
</defs>
</svg>
