<svg width="61" height="60" viewBox="0 0 61 60" fill="none" xmlns="http://www.w3.org/2000/svg">
<circle cx="30.6665" cy="30" r="30" fill="#F2EEFF"/>
<path d="M36.25 37.4934V21.375C36.2491 21.0769 36.1303 20.7913 35.9195 20.5805C35.7087 20.3697 35.4231 20.2509 35.125 20.25H22.375C22.0769 20.2509 21.7913 20.3697 21.5805 20.5805C21.3697 20.7913 21.2509 21.0769 21.25 21.375V37.875C21.2515 38.3718 21.4495 38.8479 21.8008 39.1992C22.1521 39.5505 22.6282 39.7485 23.125 39.75H38.5" stroke="#7C57FF" stroke-linejoin="round"/>
<path d="M38.5 39.75C37.9033 39.75 37.331 39.5129 36.909 39.091C36.4871 38.669 36.25 38.0967 36.25 37.5V24H39.625C39.9234 24 40.2095 24.1185 40.4205 24.3295C40.6315 24.5405 40.75 24.8266 40.75 25.125V37.5C40.75 38.0967 40.5129 38.669 40.091 39.091C39.669 39.5129 39.0967 39.75 38.5 39.75Z" stroke="#7C57FF" stroke-linejoin="round"/>
<path d="M30.25 24H33.25" stroke="#7C57FF" stroke-linecap="round" stroke-linejoin="round"/>
<path d="M30.25 27H33.25" stroke="#7C57FF" stroke-linecap="round" stroke-linejoin="round"/>
<path d="M24.25 30H33.25" stroke="#7C57FF" stroke-linecap="round" stroke-linejoin="round"/>
<path d="M24.25 33H33.25" stroke="#7C57FF" stroke-linecap="round" stroke-linejoin="round"/>
<path d="M24.25 36H33.25" stroke="#7C57FF" stroke-linecap="round" stroke-linejoin="round"/>
<path d="M27.25 27.25H24.25C24.1837 27.25 24.1201 27.2237 24.0732 27.1768L23.7197 27.5303L24.0732 27.1768C24.0263 27.1299 24 27.0663 24 27V24C24 23.9337 24.0263 23.8701 24.0732 23.8232C24.1201 23.7763 24.1837 23.75 24.25 23.75H27.25C27.3163 23.75 27.3799 23.7763 27.4268 23.8232L27.7803 23.4697L27.4268 23.8232C27.4737 23.8701 27.5 23.9337 27.5 24V27C27.5 27.0663 27.4737 27.1299 27.4268 27.1768L27.7803 27.5303L27.4268 27.1768C27.3799 27.2237 27.3163 27.25 27.25 27.25Z" stroke="#7C57FF"/>
</svg>
