<svg width="19" height="19" viewBox="0 0 19 19" fill="none" xmlns="http://www.w3.org/2000/svg">
<path d="M4.56011 18.3082H13.4774C14.4926 18.3082 15.3188 17.3316 15.3188 16.1299V4.56809C15.3188 4.20317 15.0688 3.9082 14.7609 3.9082C14.453 3.9082 14.2031 4.20317 14.2031 4.56809V16.1299C14.2031 16.6031 13.8779 16.9884 13.4774 16.9884H4.56011C4.16015 16.9884 3.83439 16.6031 3.83439 16.1299V4.56809C3.83439 4.20317 3.58448 3.9082 3.27657 3.9082C2.96865 3.9082 2.71875 4.20317 2.71875 4.56809V16.1299C2.71875 17.3316 3.54488 18.3082 4.56011 18.3082Z" fill="#E60000"/>
<path d="M0.690625 4.33167H6.02515H12.3168H17.6514C18.0239 4.33167 18.3263 4.02994 18.3263 3.65667C18.3263 3.28339 18.0239 2.98167 17.6514 2.98167H12.9918V0.981641C12.9918 0.608366 12.6894 0.306641 12.3168 0.306641H6.02515C5.65255 0.306641 5.35015 0.608366 5.35015 0.981641V2.98167H0.690625C0.318025 2.98167 0.015625 3.28339 0.015625 3.65667C0.015625 4.02994 0.31735 4.33167 0.690625 4.33167ZM6.69947 1.65664H11.6411V2.98167H6.69947V1.65664Z" fill="#E60000"/>
</svg>
