<svg width="24" height="24" viewBox="0 0 24 24" fill="none" xmlns="http://www.w3.org/2000/svg">
<g clip-path="url(#clip0_5777_4745)">
<path d="M7.50002 1C5.28734 1 3.37348 2.6765 3.0498 4.90342C3.01779 5.1243 3 5.35242 3 5.58058C3 5.70007 3.00356 5.81594 3.01423 5.93544C3.0249 6.07665 3.04269 6.21787 3.06403 6.35909C3.10316 6.60532 3.16719 6.84792 3.24546 7.07968C3.34151 7.36212 3.58696 7.89442 4.22014 8.83226C5.24108 10.3458 6.72093 12.102 7.50001 13C7.53203 12.9638 7.56404 12.9276 7.59606 12.8914C8.39648 11.9644 9.79808 10.2879 10.7799 8.83222C11.4131 7.89438 11.6585 7.3621 11.7545 7.07964C11.8328 6.84427 11.8933 6.60529 11.936 6.35905C11.9502 6.28301 11.9609 6.20334 11.968 6.12368C11.9893 5.94263 12 5.76158 12 5.58416C12 3.05306 9.97947 1.00001 7.49995 1.00001L7.50002 1ZM7.50002 7.01812C6.72094 7.01812 6.08776 6.37358 6.08776 5.58058C6.08776 4.78755 6.72096 4.14304 7.50002 4.14304C8.27908 4.14304 8.91229 4.78758 8.91229 5.58058C8.91229 6.3736 8.27908 7.01812 7.50002 7.01812Z"/>
<path d="M12.9263 7.77832H12.1523C12.1467 7.86987 12.1384 7.95865 12.1301 8.0502C12.1245 8.09737 12.119 8.1473 12.1107 8.19447C12.1051 8.22499 12.0996 8.25828 12.0968 8.2888C12.0552 8.53571 11.9914 8.77985 11.9109 9.01286C11.7666 9.42901 11.4753 9.95614 11.0148 10.622C9.8496 12.3198 8.02966 14.3118 7.95199 14.395L7.80218 14.5587L7.5414 14.8444L7.1308 14.3978C7.05313 14.3146 5.2332 12.3226 4.06798 10.6247C3.61023 9.95612 3.31616 9.43178 3.17468 9.01843C3.12752 8.88526 3.08868 8.74932 3.05538 8.61338C3.02764 8.50796 3.00545 8.39976 2.9888 8.29156C2.98325 8.26104 2.9777 8.22775 2.97493 8.19723C2.95551 8.05852 2.93886 7.9198 2.93331 7.78109H2.13153C1.26871 7.78109 0.539062 8.48299 0.539062 9.31253V18.9395C0.539062 19.3529 0.713843 19.7385 1.03011 20.0298C1.32696 20.3017 1.72922 20.4599 2.13151 20.4599H4.12621C4.31487 21.5724 5.28585 22.4241 6.45107 22.4241C7.61628 22.4241 8.58725 21.5724 8.77592 20.4599H14.4384V9.31296C14.4356 8.45294 13.7726 7.77879 12.9264 7.77879L12.9263 7.77832ZM6.4481 21.3116C5.7601 21.3116 5.19968 20.7511 5.19968 20.0631V20.0493C5.20801 19.3696 5.76842 18.8147 6.4481 18.8147C7.12778 18.8147 7.68819 19.3696 7.69651 20.0493V20.0631C7.69651 20.7511 7.1361 21.3116 6.4481 21.3116Z"/>
<path d="M18.666 15.1246V14.0148H23.5515L20.2085 9.83398H15.5449V20.4594H17.2678C17.4564 21.5719 18.4274 22.4236 19.5926 22.4236C20.7578 22.4236 21.7288 21.5747 21.9175 20.4594H23.8678V15.1246L18.666 15.1246ZM20.7772 20.4593C20.6108 20.9531 20.1447 21.3138 19.5926 21.3138C19.0433 21.3138 18.5744 20.9559 18.4079 20.4593C18.3663 20.3345 18.3441 20.2013 18.3441 20.0626V20.0487V20.0432C18.3469 19.8961 18.3746 19.7574 18.4218 19.627C18.5993 19.1554 19.0571 18.8142 19.5897 18.8142C20.1224 18.8142 20.5801 19.1527 20.7577 19.627C20.8076 19.7574 20.8354 19.8961 20.8354 20.0432V20.0487V20.0626C20.8409 20.2013 20.8188 20.3345 20.7772 20.4593Z"/>
</g>
<defs>
<clipPath id="clip0_5777_4745">
<rect width="24" height="24"/>
</clipPath>
</defs>
</svg>
