<svg width="32" height="33" viewBox="0 0 32 33" fill="none" xmlns="http://www.w3.org/2000/svg">
<circle cx="16" cy="16.0391" r="16" fill="#F4F4F4"/>
<path d="M16 16.0392V23.5392M16 16.0392L13.9167 17.7059M16 16.0392L18.0833 17.7059M10.195 13.6367C9.40685 13.835 8.71824 14.3144 8.25855 14.9846C7.79887 15.6548 7.59974 16.4698 7.6986 17.2765C7.79745 18.0832 8.18748 18.8261 8.7954 19.3655C9.40332 19.9049 10.1873 20.2037 11 20.2059H11.8333" stroke="#7E7E7E" stroke-width="1.5" stroke-linecap="round" stroke-linejoin="round"/>
<path d="M19.1917 11.9875C18.9069 10.8596 18.2039 9.88227 17.2252 9.25353C16.2464 8.6248 15.0653 8.39173 13.9211 8.60157C12.7769 8.81142 11.7553 9.44847 11.0634 10.3836C10.3715 11.3187 10.0611 12.482 10.1951 13.6375C10.1951 13.6375 10.3226 14.3725 10.5834 14.7892" stroke="#7E7E7E" stroke-width="1.5" stroke-linecap="round" stroke-linejoin="round"/>
<path d="M20.1668 20.2054C20.7552 20.205 21.3368 20.08 21.8734 19.8386C22.41 19.5972 22.8893 19.245 23.2799 18.805C23.6705 18.365 23.9635 17.8472 24.1396 17.2858C24.3157 16.7245 24.371 16.1321 24.3016 15.5479C24.2323 14.9636 24.0401 14.4006 23.7375 13.896C23.4349 13.3914 23.0289 12.9566 22.5462 12.6202C22.0635 12.2838 21.515 12.0535 20.9368 11.9444C20.3587 11.8352 19.764 11.8498 19.1918 11.9871L18.0835 12.2887" stroke="#7E7E7E" stroke-width="1.5" stroke-linecap="round" stroke-linejoin="round"/>
</svg>
