<svg width="24" height="25" viewBox="0 0 24 25" fill="none" xmlns="http://www.w3.org/2000/svg">
<g clip-path="url(#clip0_61_27923)">
<path fill-rule="evenodd" clip-rule="evenodd" d="M4.4375 21.7081L5.7845 16.7906C4.9535 15.3516 4.5165 13.7186 4.517 12.0461C4.5195 6.81364 8.7775 2.55664 14.0105 2.55664C16.55 2.55764 18.933 3.54614 20.7255 5.33964C22.5175 7.13364 23.5045 9.51764 23.5035 12.0536C23.5015 17.2861 19.2425 21.5436 14.0105 21.5436H14.0065C12.418 21.5431 10.8565 21.1446 9.47 20.3881L4.4375 21.7081Z" fill="white"/>
<path fill-rule="evenodd" clip-rule="evenodd" d="M4.43728 21.9581C4.37128 21.9581 4.30728 21.9321 4.25978 21.8841C4.19728 21.8206 4.17278 21.7281 4.19628 21.6426L5.51578 16.8246C4.69778 15.3716 4.26628 13.7216 4.26728 12.0466C4.26928 6.67564 8.63978 2.30664 14.0103 2.30664C16.6153 2.30764 19.0628 3.32214 20.9023 5.16314C22.7418 7.00464 23.7543 9.45164 23.7533 12.0536C23.7513 17.4241 19.3803 21.7936 14.0103 21.7936C12.4158 21.7931 10.8383 21.3996 9.43828 20.6551L4.50078 21.9496C4.47978 21.9556 4.45878 21.9581 4.43728 21.9581Z" fill="white"/>
<path fill-rule="evenodd" clip-rule="evenodd" d="M14.0107 2.55664C16.5502 2.55764 18.9332 3.54614 20.7257 5.33964C22.5177 7.13364 23.5047 9.51764 23.5037 12.0536C23.5017 17.2861 19.2427 21.5436 14.0107 21.5436H14.0067C12.4182 21.5431 10.8567 21.1446 9.47021 20.3881L4.43771 21.7081L5.78471 16.7906C4.95371 15.3516 4.51671 13.7186 4.51721 12.0461C4.51971 6.81364 8.77771 2.55664 14.0107 2.55664ZM14.0107 2.05664C8.50271 2.05664 4.01971 6.53764 4.01721 12.0461C4.01671 13.7296 4.44171 15.3886 5.24771 16.8571L3.95521 21.5766C3.90821 21.7491 3.95621 21.9331 4.08221 22.0601C4.17721 22.1561 4.30571 22.2086 4.43771 22.2086C4.48021 22.2086 4.52271 22.2031 4.56471 22.1921L9.40821 20.9221C10.8222 21.6561 12.4072 22.0436 14.0067 22.0441C19.5187 22.0441 24.0017 17.5626 24.0042 12.0541C24.0052 9.38464 22.9667 6.87464 21.0802 4.98664C19.1927 3.09814 16.6822 2.05764 14.0107 2.05664Z" fill="#CFD8DC"/>
<path fill-rule="evenodd" clip-rule="evenodd" d="M19.5892 6.47316C18.0992 4.98216 16.1187 4.16066 14.0107 4.16016C9.65869 4.16016 6.11919 7.69816 6.11719 12.0472C6.11669 13.5377 6.53369 14.9887 7.32369 16.2452L7.51169 16.5437L6.71419 19.4542L9.70069 18.6712L9.98919 18.8422C11.2002 19.5612 12.5892 19.9412 14.0052 19.9417H14.0082C18.3572 19.9417 21.8967 16.4032 21.8982 12.0537C21.8987 9.94616 21.0792 7.96416 19.5892 6.47316Z" fill="#40C351"/>
<path fill-rule="evenodd" clip-rule="evenodd" d="M11.6312 8.07957C11.4537 7.68457 11.2667 7.67657 11.0972 7.66957C10.9587 7.66357 10.8007 7.66407 10.6427 7.66407C10.4847 7.66407 10.2277 7.72357 10.0102 7.96107C9.79269 8.19857 9.17969 8.77207 9.17969 9.93907C9.17969 11.1061 10.0297 12.2341 10.1482 12.3921C10.2667 12.5501 11.7892 15.0216 14.2002 15.9726C16.2037 16.7626 16.6117 16.6056 17.0467 16.5661C17.4817 16.5266 18.4502 15.9926 18.6477 15.4386C18.8452 14.8846 18.8452 14.4101 18.7862 14.3111C18.7267 14.2121 18.5687 14.1531 18.3317 14.0341C18.0947 13.9151 16.9282 13.3416 16.7107 13.2626C16.4932 13.1836 16.3352 13.1441 16.1767 13.3816C16.0187 13.6186 15.5642 14.1531 15.4257 14.3111C15.2872 14.4696 15.1487 14.4896 14.9117 14.3706C14.6747 14.2516 13.9107 14.0016 13.0042 13.1936C12.2992 12.5651 11.8232 11.7886 11.6847 11.5511C11.5462 11.3141 11.6697 11.1856 11.7887 11.0671C11.8952 10.9606 12.0257 10.7901 12.1447 10.6516C12.2632 10.5131 12.3027 10.4141 12.3817 10.2561C12.4607 10.0976 12.4212 9.95907 12.3617 9.84057C12.3032 9.72157 11.8422 8.54857 11.6312 8.07957Z" fill="white"/>
</g>
<defs>
<clipPath id="clip0_61_27923">
<rect width="24" height="24" fill="white" transform="translate(0 0.0566406)"/>
</clipPath>
</defs>
</svg>
